<svg width="172" height="172" viewBox="0 0 172 172" fill="none" xmlns="http://www.w3.org/2000/svg">
<circle cx="86" cy="86" r="86" fill="#E2E2DA"/>
<path d="M57 91V138H65L79.5 141H123C124.667 140.833 128 139.5 128 135.5C128 131.5 124.333 129.833 122.5 129.5H127C129 129 133 127.1 133 123.5C133 119.9 129 118 127 117.5H129.5C131.5 117.333 135.5 115.9 135.5 111.5C135.5 107.1 131.5 105.667 129.5 105.5H134C136.833 105.167 142.2 103.4 141 99C139.8 94.6 135.833 93.5 134 93.5H91C101.5 81 105.926 75.9883 104 67C103.333 66.3333 101.6 65 100 65C98.4 65 96.6667 66.3333 96 67L86 78C77.2 89.2 63 91.3333 57 91Z" fill="#E7D1C5"/>
<path d="M58.1051 141.909H42.4775C41.5556 141.908 40.6717 141.541 40.0197 140.889C39.3678 140.237 39.0011 139.353 39 138.431V90.0852C39.0011 89.1632 39.3678 88.2793 40.0197 87.6274C40.6717 86.9755 41.5556 86.6087 42.4775 86.6077H58.1051C59.0271 86.6087 59.911 86.9755 60.5629 87.6274C61.2148 88.2793 61.5816 89.1632 61.5826 90.0852V138.431C61.5816 139.353 61.2148 140.237 60.5629 140.889C59.911 141.541 59.0271 141.908 58.1051 141.909ZM42.4775 88.221C41.9833 88.2214 41.5093 88.418 41.1598 88.7675C40.8103 89.117 40.6138 89.5909 40.6133 90.0852V138.431C40.614 138.925 40.8106 139.399 41.1601 139.749C41.5095 140.098 41.9833 140.295 42.4775 140.295H58.1051C58.5994 140.295 59.0733 140.098 59.4228 139.749C59.7723 139.399 59.9689 138.925 59.9693 138.431V90.0852C59.9689 89.5909 59.7723 89.117 59.4228 88.7675C59.0733 88.418 58.5994 88.2214 58.1051 88.221H42.4775Z" fill="#929683"/>
<path d="M42.4775 88.221C41.9833 88.2214 41.5093 88.418 41.1598 88.7675C40.8103 89.117 40.6138 89.5909 40.6133 90.0852V138.431C40.614 138.925 40.8106 139.399 41.1601 139.749C41.5095 140.098 41.9833 140.295 42.4775 140.295H58.1051C58.5994 140.295 59.0733 140.098 59.4228 139.749C59.7723 139.399 59.9689 138.925 59.9693 138.431V90.0852C59.9689 89.5909 59.7723 89.117 59.4228 88.7675C59.0733 88.418 58.5994 88.2214 58.1051 88.221H42.4775Z" fill="#929683"/>
<path d="M50.2916 131.331C49.7916 131.331 49.3027 131.479 48.8869 131.757C48.471 132.034 48.1469 132.429 47.9554 132.891C47.764 133.353 47.7138 133.861 47.8112 134.352C47.9087 134.842 48.1494 135.293 48.5029 135.646C48.8565 136 49.3069 136.241 49.7973 136.338C50.2878 136.436 50.7961 136.386 51.2581 136.195C51.7201 136.003 52.115 135.679 52.3928 135.264C52.6706 134.848 52.8189 134.359 52.8189 133.859C52.8181 133.189 52.5516 132.547 52.0778 132.073C51.6041 131.599 50.9617 131.332 50.2916 131.331Z" fill="#65685B"/>
<path fill-rule="evenodd" clip-rule="evenodd" d="M50.2916 138C49.4725 138 48.6717 137.757 47.9905 137.302C47.3093 136.847 46.7784 136.2 46.4648 135.443C46.1513 134.687 46.0692 133.854 46.229 133.05C46.3887 132.247 46.7832 131.509 47.3624 130.93C47.9416 130.351 48.6797 129.956 49.4831 129.796C50.2865 129.637 51.1193 129.719 51.8761 130.032C52.6328 130.346 53.2796 130.877 53.7346 131.558C54.1897 132.239 54.4324 133.04 54.4323 133.859C54.431 134.957 53.9943 136.009 53.2181 136.785C52.4419 137.562 51.3894 137.998 50.2916 138ZM48.8869 131.757C49.3027 131.479 49.7916 131.331 50.2916 131.331C50.9617 131.332 51.6041 131.599 52.0778 132.073C52.5516 132.547 52.8181 133.189 52.8189 133.859C52.8189 134.359 52.6706 134.848 52.3928 135.264C52.115 135.679 51.7201 136.003 51.2581 136.195C50.7961 136.386 50.2878 136.436 49.7973 136.338C49.3069 136.241 48.8565 136 48.5029 135.646C48.1494 135.293 47.9087 134.842 47.8112 134.352C47.7138 133.861 47.764 133.353 47.9554 132.891C48.1469 132.429 48.471 132.034 48.8869 131.757Z" fill="#65685B"/>
<path d="M97.0082 137.378H79.7052C79.651 137.377 79.597 137.371 79.5438 137.361L72.3492 135.854C72.1397 135.81 71.9563 135.685 71.8393 135.505C71.7223 135.326 71.6813 135.108 71.7252 134.898C71.7692 134.689 71.8946 134.506 72.0737 134.389C72.2529 134.272 72.4713 134.231 72.6807 134.275L79.7931 135.764H97.0082C97.2221 135.764 97.4273 135.849 97.5786 136.001C97.7299 136.152 97.8148 136.357 97.8148 136.571C97.8148 136.785 97.7299 136.99 97.5786 137.142C97.4273 137.293 97.2221 137.378 97.0082 137.378Z" fill="#D0BAAE"/>
<path d="M43.4859 125.059C43.2719 125.059 43.0667 124.974 42.9155 124.823C42.7642 124.671 42.6792 124.466 42.6792 124.252V119.902C42.6792 119.688 42.7642 119.483 42.9155 119.331C43.0667 119.18 43.2719 119.095 43.4859 119.095C43.6998 119.095 43.905 119.18 44.0563 119.331C44.2075 119.483 44.2925 119.688 44.2925 119.902V124.252C44.2925 124.466 44.2075 124.671 44.0563 124.823C43.905 124.974 43.6998 125.059 43.4859 125.059Z" fill="#65685B"/>
<path d="M43.4859 116.445C43.2719 116.445 43.0667 116.36 42.9155 116.208C42.7642 116.057 42.6792 115.852 42.6792 115.638V96.5005C42.6792 96.2866 42.7642 96.0814 42.9155 95.9301C43.0667 95.7788 43.2719 95.6938 43.4859 95.6938C43.6998 95.6938 43.905 95.7788 44.0563 95.9301C44.2075 96.0814 44.2925 96.2866 44.2925 96.5005V115.638C44.2925 115.852 44.2075 116.057 44.0563 116.208C43.905 116.36 43.6998 116.445 43.4859 116.445Z" fill="#65685B"/>
<path fill-rule="evenodd" clip-rule="evenodd" d="M52.8802 54.8709C52.739 54.871 52.6 54.8366 52.4752 54.7708L46.0014 51.3675L39.5266 54.7708C39.3828 54.8464 39.2207 54.8802 39.0586 54.8685C38.8966 54.8568 38.741 54.8 38.6096 54.7045C38.4781 54.609 38.376 54.4787 38.3147 54.3282C38.2535 54.1777 38.2356 54.013 38.263 53.8529L39.4996 46.6449L34.2632 41.5409C34.1468 41.4275 34.0644 41.2838 34.0254 41.126C33.9864 40.9682 33.9924 40.8026 34.0426 40.648C34.0928 40.4935 34.1852 40.356 34.3095 40.2512C34.4338 40.1465 34.5848 40.0786 34.7457 40.0552L41.9824 39.0041L45.2193 32.4458C45.2995 32.31 45.4136 32.1975 45.5506 32.1193C45.6875 32.0411 45.8424 32 46.0001 32C46.1577 32 46.3126 32.0411 46.4496 32.1193C46.5865 32.1975 46.7006 32.31 46.7808 32.4458L50.0177 39.0041L57.2535 40.0552C57.4145 40.0784 57.5657 40.1462 57.69 40.251C57.8144 40.3557 57.907 40.4931 57.9573 40.6477C58.0076 40.8023 58.0136 40.9679 57.9746 41.1258C57.9357 41.2836 57.8533 41.4274 57.7369 41.5409L52.5022 46.6449L53.7388 53.8529C53.7602 53.9778 53.7541 54.106 53.7209 54.2283C53.6877 54.3506 53.6281 54.4642 53.5465 54.5612C53.4648 54.6581 53.3629 54.7361 53.248 54.7896C53.133 54.8431 53.0069 54.8708 52.8802 54.8709ZM46.4054 49.6127C46.2805 49.5473 46.1415 49.5133 46.0005 49.5135C45.8593 49.5138 45.7212 49.5485 45.5964 49.6145L40.2799 52.4099L41.2953 46.4881C41.3192 46.349 41.309 46.2062 41.2654 46.072C41.2219 45.9377 41.1464 45.816 41.0454 45.7174L36.7443 41.5252L42.6878 40.6622C42.8276 40.6418 42.9604 40.5877 43.0746 40.5046C43.1889 40.4214 43.2812 40.3117 43.3435 40.185L46.0005 34.7979L48.6592 40.1832C48.7216 40.31 48.8139 40.4197 48.9281 40.5028C49.0424 40.586 49.1751 40.6401 49.3149 40.6604L55.2576 41.5235L50.9573 45.7157C50.8563 45.8143 50.7808 45.936 50.7373 46.0702C50.6937 46.2045 50.6835 46.3473 50.7074 46.4864L51.7228 52.4082L46.4054 49.6127Z" fill="#EDC486"/>
<path d="M46.0005 49.5135C46.1415 49.5133 46.2805 49.5473 46.4054 49.6127L51.7228 52.4082L50.7074 46.4864C50.6835 46.3473 50.6937 46.2045 50.7373 46.0702C50.7808 45.936 50.8563 45.8143 50.9573 45.7157L55.2576 41.5235L49.3149 40.6604C49.1751 40.6401 49.0424 40.586 48.9281 40.5028C48.8139 40.4197 48.7216 40.31 48.6592 40.1832L46.0005 34.7979L43.3435 40.185C43.2812 40.3117 43.1889 40.4214 43.0746 40.5046C42.9604 40.5877 42.8276 40.6418 42.6878 40.6622L36.7443 41.5252L41.0454 45.7174C41.1464 45.816 41.2219 45.9377 41.2654 46.072C41.309 46.2062 41.3192 46.349 41.2953 46.4881L40.2799 52.4099L45.5964 49.6145C45.7212 49.5485 45.8593 49.5138 46.0005 49.5135Z" fill="#EDC486"/>
<path d="M118.122 54.8709C117.995 54.8709 117.87 54.8433 117.754 54.7898C117.639 54.7364 117.537 54.6585 117.456 54.5615C117.374 54.4645 117.314 54.3509 117.281 54.2285C117.248 54.1061 117.242 53.9779 117.263 53.8529L118.5 46.6449L113.263 41.5409C113.147 41.4275 113.064 41.2837 113.025 41.126C112.986 40.9682 112.992 40.8026 113.043 40.648C113.093 40.4935 113.185 40.356 113.309 40.2512C113.434 40.1465 113.585 40.0786 113.746 40.0552L120.982 39.0041L124.219 32.4458C124.299 32.31 124.414 32.1975 124.551 32.1193C124.687 32.0411 124.842 32 125 32C125.158 32 125.313 32.0411 125.45 32.1193C125.586 32.1975 125.701 32.31 125.781 32.4458L129.017 39.0041L136.254 40.0552C136.414 40.0784 136.566 40.1462 136.69 40.251C136.814 40.3557 136.907 40.4931 136.957 40.6477C137.008 40.8023 137.014 40.9679 136.975 41.1258C136.936 41.2836 136.853 41.4274 136.737 41.5409L131.5 46.6449L132.735 53.8529C132.763 54.013 132.745 54.1776 132.684 54.3281C132.622 54.4787 132.52 54.609 132.389 54.7045C132.257 54.8 132.102 54.8568 131.94 54.8685C131.778 54.8802 131.616 54.8464 131.472 54.7707L125 51.3675L118.526 54.7707C118.401 54.8366 118.263 54.871 118.122 54.8709ZM125.001 49.5134C125.143 49.5135 125.282 49.5476 125.407 49.6127L130.719 52.4081L129.705 46.4864C129.681 46.3473 129.691 46.2045 129.735 46.0702C129.778 45.936 129.854 45.8143 129.955 45.7157L134.256 41.5234L128.313 40.6604C128.173 40.6401 128.041 40.586 127.926 40.5028C127.812 40.4197 127.72 40.31 127.657 40.1832L124.999 34.7979L122.343 40.185C122.28 40.3117 122.188 40.4214 122.074 40.5046C121.96 40.5877 121.827 40.6418 121.687 40.6622L115.744 41.5252L120.045 45.7174C120.146 45.816 120.222 45.9377 120.265 46.0719C120.309 46.2062 120.319 46.349 120.295 46.4881L119.28 52.4099L124.592 49.6145C124.718 49.5481 124.858 49.5134 125 49.5134H125.001Z" fill="#EDC486"/>
<path d="M125.001 49.5134C125.143 49.5135 125.282 49.5476 125.407 49.6127L130.719 52.4081L129.705 46.4864C129.681 46.3473 129.691 46.2045 129.735 46.0702C129.778 45.936 129.854 45.8143 129.955 45.7157L134.256 41.5234L128.313 40.6604C128.173 40.6401 128.041 40.586 127.926 40.5028C127.812 40.4197 127.72 40.31 127.657 40.1832L124.999 34.7979L122.343 40.185C122.28 40.3117 122.188 40.4214 122.074 40.5046C121.96 40.5877 121.827 40.6418 121.687 40.6622L115.744 41.5252L120.045 45.7174C120.146 45.816 120.222 45.9377 120.265 46.0719C120.309 46.2062 120.319 46.349 120.295 46.4881L119.28 52.4099L124.592 49.6145C124.718 49.5481 124.858 49.5134 125 49.5134H125.001Z" fill="#EDC486"/>
<path d="M138.628 73C138.538 73 138.449 72.9807 138.368 72.9433C138.286 72.9059 138.214 72.8514 138.156 72.7836C138.098 72.7157 138.056 72.6362 138.032 72.5506C138.009 72.465 138.004 72.3753 138.02 72.2878L138.896 67.2453L135.186 63.6746C135.104 63.5953 135.046 63.4947 135.018 63.3843C134.99 63.274 134.995 63.1581 135.03 63.05C135.066 62.9418 135.131 62.8457 135.219 62.7724C135.307 62.6991 135.414 62.6516 135.528 62.6353L140.654 61.8999L142.947 57.3118C143.004 57.2169 143.085 57.1381 143.182 57.0835C143.279 57.0288 143.388 57 143.5 57C143.612 57 143.721 57.0288 143.818 57.0835C143.915 57.1381 143.996 57.2169 144.053 57.3118L146.345 61.8999L151.471 62.6353C151.585 62.6515 151.692 62.6989 151.78 62.7722C151.869 62.8455 151.934 62.9416 151.97 63.0498C152.005 63.1579 152.01 63.2738 151.982 63.3842C151.954 63.4946 151.896 63.5952 151.814 63.6746L148.104 67.2453L148.979 72.2878C148.999 72.3999 148.986 72.515 148.943 72.6203C148.899 72.7256 148.827 72.8168 148.734 72.8836C148.641 72.9504 148.53 72.9902 148.416 72.9983C148.301 73.0065 148.186 72.9828 148.084 72.9299L143.5 70.5491L138.914 72.9299C138.826 72.976 138.728 73.0001 138.628 73ZM143.501 69.252C143.601 69.2521 143.7 69.2759 143.788 69.3215L147.551 71.2771L146.833 67.1344C146.816 67.0371 146.823 66.9372 146.854 66.8432C146.885 66.7493 146.938 66.6642 147.01 66.5952L150.056 63.6624L145.847 63.0587C145.748 63.0444 145.654 63.0066 145.573 62.9484C145.492 62.8902 145.427 62.8135 145.382 62.7248L143.499 58.9574L141.618 62.726C141.574 62.8147 141.508 62.8915 141.427 62.9496C141.346 63.0078 141.252 63.0456 141.153 63.0599L136.944 63.6636L139.99 66.5964C140.062 66.6654 140.116 66.7505 140.146 66.8444C140.177 66.9384 140.184 67.0383 140.168 67.1356L139.448 71.2783L143.211 69.3227C143.3 69.2763 143.399 69.252 143.5 69.252H143.501Z" fill="#EDC486"/>
<path d="M143.501 69.252C143.601 69.2521 143.7 69.2759 143.788 69.3215L147.551 71.2771L146.833 67.1344C146.816 67.0371 146.823 66.9372 146.854 66.8432C146.885 66.7493 146.938 66.6642 147.01 66.5952L150.056 63.6624L145.847 63.0587C145.748 63.0444 145.654 63.0066 145.573 62.9484C145.492 62.8902 145.427 62.8135 145.382 62.7248L143.499 58.9574L141.618 62.726C141.574 62.8147 141.508 62.8915 141.427 62.9496C141.346 63.0078 141.252 63.0456 141.153 63.0599L136.944 63.6636L139.99 66.5964C140.062 66.6654 140.116 66.7505 140.146 66.8444C140.177 66.9384 140.184 67.0383 140.168 67.1356L139.448 71.2783L143.211 69.3227C143.3 69.2763 143.399 69.252 143.5 69.252H143.501Z" fill="#EDC486"/>
<path d="M20.6279 73C20.538 73 20.4492 72.9807 20.3678 72.9433C20.2863 72.9059 20.214 72.8514 20.1561 72.7836C20.0982 72.7157 20.056 72.6362 20.0324 72.5506C20.0088 72.465 20.0045 72.3753 20.0197 72.2878L20.8956 67.2453L17.1865 63.6746C17.104 63.5953 17.0456 63.4947 17.018 63.3843C16.9904 63.274 16.9946 63.1581 17.0302 63.05C17.0657 62.9418 17.1312 62.8457 17.2192 62.7724C17.3072 62.6991 17.4143 62.6516 17.5282 62.6353L22.6542 61.8999L24.947 57.3118C25.0038 57.2169 25.0847 57.1381 25.1816 57.0835C25.2786 57.0288 25.3884 57 25.5 57C25.6117 57 25.7215 57.0288 25.8184 57.0835C25.9154 57.1381 25.9963 57.2169 26.053 57.3118L28.3452 61.8999L33.4713 62.6353C33.5852 62.6515 33.6923 62.6989 33.7804 62.7722C33.8685 62.8455 33.9341 62.9416 33.9697 63.0498C34.0054 63.1579 34.0096 63.2738 33.982 63.3842C33.9544 63.4946 33.8961 63.5952 33.8136 63.6746L30.1039 67.2453L30.9792 72.2878C30.9986 72.3999 30.9859 72.515 30.9426 72.6203C30.8992 72.7256 30.8269 72.8168 30.7337 72.8836C30.6406 72.9504 30.5304 72.9902 30.4156 72.9983C30.3008 73.0065 30.186 72.9828 30.0841 72.9299L25.4997 70.5491L20.9141 72.9299C20.8259 72.976 20.7276 73.0001 20.6279 73ZM25.501 69.252C25.601 69.2521 25.6996 69.2759 25.7884 69.3215L29.5512 71.2771L28.8326 67.1344C28.8156 67.0371 28.8229 66.9372 28.8537 66.8432C28.8846 66.7493 28.9381 66.6642 29.0096 66.5952L32.0562 63.6624L27.8468 63.0587C27.7478 63.0444 27.6538 63.0066 27.5728 62.9484C27.4919 62.8902 27.4265 62.8135 27.3824 62.7248L25.4991 58.9574L23.6177 62.726C23.5735 62.8147 23.5082 62.8915 23.4272 62.9496C23.3463 63.0078 23.2523 63.0456 23.1532 63.0599L18.9439 63.6636L21.9905 66.5964C22.062 66.6654 22.1155 66.7505 22.1464 66.8444C22.1772 66.9384 22.1845 67.0383 22.1675 67.1356L21.4483 71.2783L25.211 69.3227C25.3 69.2763 25.3991 69.252 25.4997 69.252H25.501Z" fill="#EDC486"/>
<path d="M25.501 69.252C25.601 69.2521 25.6996 69.2759 25.7884 69.3215L29.5512 71.2771L28.8326 67.1344C28.8156 67.0371 28.8229 66.9372 28.8537 66.8432C28.8846 66.7493 28.9381 66.6642 29.0096 66.5952L32.0562 63.6624L27.8468 63.0587C27.7478 63.0444 27.6538 63.0066 27.5728 62.9484C27.4919 62.8902 27.4265 62.8135 27.3824 62.7248L25.4991 58.9574L23.6177 62.726C23.5735 62.8147 23.5082 62.8915 23.4272 62.9496C23.3463 63.0078 23.2523 63.0456 23.1532 63.0599L18.9439 63.6636L21.9905 66.5964C22.062 66.6654 22.1155 66.7505 22.1464 66.8444C22.1772 66.9384 22.1845 67.0383 22.1675 67.1356L21.4483 71.2783L25.211 69.3227C25.3 69.2763 25.3991 69.252 25.4997 69.252H25.501Z" fill="#EDC486"/>
<path d="M96.2177 48C96.0282 48.0001 95.8415 47.9543 95.6737 47.8667L85.5031 42.5578L75.3325 47.8667C75.1397 47.9673 74.9224 48.0124 74.7052 47.9968C74.488 47.9813 74.2794 47.9057 74.1032 47.7786C73.927 47.6515 73.7901 47.478 73.708 47.2777C73.626 47.0774 73.602 46.8584 73.6387 46.6452L75.5811 35.4038L67.3529 27.441C67.1968 27.2901 67.0864 27.0988 67.0341 26.8888C66.9818 26.6789 66.9898 26.4586 67.0571 26.2528C67.1244 26.0471 67.2483 25.8642 67.4149 25.7248C67.5814 25.5854 67.7839 25.495 67.9995 25.4639L79.3713 23.8229L84.4572 13.5932C84.5646 13.4125 84.7176 13.2628 84.9012 13.1588C85.0847 13.0547 85.2924 13 85.5037 13C85.715 13 85.9227 13.0547 86.1062 13.1588C86.2897 13.2628 86.4427 13.4125 86.5502 13.5932L91.6361 23.8229L103.007 25.4639C103.221 25.4959 103.422 25.5865 103.587 25.7255C103.752 25.8645 103.875 26.0463 103.943 26.2508C104.01 26.4552 104.018 26.6742 103.967 26.8832C103.916 27.0921 103.807 27.2829 103.653 27.434L95.4251 35.398L97.3675 46.6394C97.3962 46.8057 97.388 46.9762 97.3435 47.139C97.2989 47.3018 97.2191 47.453 97.1096 47.5821C97.0001 47.7111 96.8636 47.8148 96.7095 47.886C96.5555 47.9572 96.3876 47.9941 96.2177 47.9942V48ZM85.506 40.0893C85.6945 40.0897 85.8802 40.1354 86.0471 40.2226L94.6664 44.7226L93.0205 35.1929C92.9882 35.0076 93.0019 34.8173 93.0602 34.6384C93.1186 34.4596 93.2199 34.2975 93.3555 34.1661L100.33 27.4178L90.6929 26.0271C90.5055 26 90.3275 25.928 90.1744 25.8174C90.0213 25.7067 89.8975 25.5608 89.8139 25.392L85.5078 16.7234L81.1981 25.392C81.1145 25.5608 80.9908 25.7067 80.8376 25.8174C80.6845 25.928 80.5066 26 80.3192 26.0271L70.6808 27.4178L77.6577 34.1661C77.7935 34.2973 77.895 34.4594 77.9536 34.6383C78.0122 34.8172 78.026 35.0075 77.9939 35.1929L76.3445 44.7226L84.965 40.2226C85.1318 40.1354 85.3175 40.0897 85.506 40.0893Z" fill="#EDC486"/>
<path d="M85.506 40.0893C85.5053 40.0893 85.5038 40.0893 85.5031 40.0893H85.5078C85.5072 40.0893 85.5066 40.0893 85.506 40.0893C85.6945 40.0897 85.8802 40.1354 86.0471 40.2226L94.6664 44.7226L93.0205 35.1929C92.9882 35.0076 93.0019 34.8173 93.0602 34.6384C93.1186 34.4596 93.2199 34.2975 93.3555 34.1661L100.33 27.4178L90.6929 26.0271C90.5055 26 90.3275 25.928 90.1744 25.8174C90.0213 25.7067 89.8975 25.5608 89.8139 25.392L85.5078 16.7234L81.1981 25.392C81.1145 25.5608 80.9908 25.7067 80.8376 25.8174C80.6845 25.928 80.5066 26 80.3192 26.0271L70.6808 27.4178L77.6577 34.1661C77.7935 34.2973 77.895 34.4594 77.9536 34.6383C78.0122 34.8172 78.026 35.0075 77.9939 35.1929L76.3445 44.7226L84.965 40.2226C85.1318 40.1354 85.3175 40.0897 85.506 40.0893Z" fill="#EDC486"/>
<path d="M108 105.5H129.5C133 106 134 107 135 109L108 105.5Z" fill="#D0BAAE"/>
<path d="M112.5 117.5H127C129.4 117.9 131 119.333 131.5 120L112.5 117.5Z" fill="#D0BAAE"/>
<path d="M111 129.5H122.5C125.7 130.3 127.167 132.167 127.5 133L111 129.5Z" fill="#D0BAAE"/>
</svg>
