<svg width="172" height="172" viewBox="0 0 172 172" fill="none" xmlns="http://www.w3.org/2000/svg">
<circle cx="86" cy="86" r="86" fill="#F1F1E4"/>
<rect x="29" y="36" width="104" height="70.0408" rx="7" fill="#F8F8F8"/>
<path d="M123.044 83.0367H38.8864C38.6743 83.0367 38.471 82.9525 38.3211 82.8026C38.1711 82.6526 38.0869 82.4493 38.0869 82.2373C38.0869 82.0252 38.1711 81.8219 38.3211 81.672C38.471 81.522 38.6743 81.4378 38.8864 81.4378H123.044C123.256 81.4378 123.46 81.522 123.61 81.672C123.76 81.8219 123.844 82.0252 123.844 82.2373C123.844 82.4493 123.76 82.6526 123.61 82.8026C123.46 82.9525 123.256 83.0367 123.044 83.0367Z" fill="#41382E"/>
<path d="M123.044 94.7871H38.8864C38.6743 94.7871 38.471 94.7029 38.3211 94.553C38.1711 94.4031 38.0869 94.1997 38.0869 93.9877C38.0869 93.7757 38.1711 93.5723 38.3211 93.4224C38.471 93.2725 38.6743 93.1882 38.8864 93.1882H123.044C123.256 93.1882 123.46 93.2725 123.61 93.4224C123.76 93.5723 123.844 93.7757 123.844 93.9877C123.844 94.1997 123.76 94.4031 123.61 94.553C123.46 94.7029 123.256 94.7871 123.044 94.7871Z" fill="#41382E"/>
<path d="M123.044 60.2435H80.9645C80.7525 60.2435 80.5491 60.1592 80.3992 60.0093C80.2493 59.8594 80.165 59.656 80.165 59.444C80.165 59.232 80.2493 59.0286 80.3992 58.8787C80.5491 58.7288 80.7525 58.6445 80.9645 58.6445H123.044C123.256 58.6445 123.459 58.7288 123.609 58.8787C123.759 59.0286 123.843 59.232 123.843 59.444C123.843 59.656 123.759 59.8594 123.609 60.0093C123.459 60.1592 123.256 60.2435 123.044 60.2435Z" fill="#41382E"/>
<path d="M123.044 71.9939H80.9645C80.7525 71.9939 80.5491 71.9097 80.3992 71.7597C80.2493 71.6098 80.165 71.4064 80.165 71.1944C80.165 70.9824 80.2493 70.779 80.3992 70.6291C80.5491 70.4792 80.7525 70.395 80.9645 70.395H123.044C123.256 70.395 123.459 70.4792 123.609 70.6291C123.759 70.779 123.843 70.9824 123.843 71.1944C123.843 71.4064 123.759 71.6098 123.609 71.7597C123.459 71.9097 123.256 71.9939 123.044 71.9939Z" fill="#41382E"/>
<path d="M123.044 49.2006H80.9645C80.7525 49.2006 80.5491 49.1164 80.3992 48.9664C80.2493 48.8165 80.165 48.6132 80.165 48.4011C80.165 48.1891 80.2493 47.9858 80.3992 47.8358C80.5491 47.6859 80.7525 47.6017 80.9645 47.6017H123.044C123.256 47.6017 123.459 47.6859 123.609 47.8358C123.759 47.9858 123.843 48.1891 123.843 48.4011C123.843 48.6132 123.759 48.8165 123.609 48.9664C123.459 49.1164 123.256 49.2006 123.044 49.2006Z" fill="#41382E"/>
<rect x="39.0464" y="47.1317" width="31.8367" height="24.4082" rx="4" fill="#D8D8D8"/>
<path d="M133.222 141H78.7769C76.9802 140.998 75.2577 140.277 73.9873 138.996C72.7169 137.715 72.0022 135.979 72 134.167V125.418C72.0049 121.066 73.7219 116.893 76.7745 113.815C79.827 110.737 83.9658 109.005 88.283 109H94.2401C94.4776 109.001 94.7077 109.084 94.8912 109.236C98.0262 111.772 101.953 113.101 105.97 112.987C110.008 113.111 113.958 111.781 117.112 109.236C117.295 109.083 117.525 109 117.763 109H123.719C128.036 109.006 132.174 110.738 135.226 113.816C138.278 116.893 139.995 121.066 140 125.418V134.168C139.998 135.98 139.283 137.716 138.012 138.997C136.741 140.278 135.019 140.998 133.222 141ZM88.283 111.06C84.5076 111.065 80.8882 112.579 78.2188 115.271C75.5494 117.962 74.0481 121.612 74.0443 125.418V134.168C74.0457 135.433 74.5447 136.646 75.4319 137.541C76.3192 138.435 77.5222 138.938 78.7769 138.94H133.222C134.477 138.938 135.68 138.435 136.567 137.541C137.455 136.646 137.954 135.433 137.956 134.168V125.418C137.952 121.612 136.45 117.962 133.781 115.27C131.111 112.579 127.491 111.065 123.716 111.06H118.121C114.665 113.75 110.396 115.158 106.032 115.048C101.648 115.167 97.3573 113.759 93.8834 111.06H88.283Z" fill="#E23A5E"/>
<path d="M88.283 111.06C84.5076 111.065 80.8882 112.579 78.2188 115.271C75.5494 117.962 74.0481 121.612 74.0443 125.418V134.168C74.0457 135.433 74.5447 136.646 75.4319 137.541C76.3192 138.435 77.5222 138.938 78.7769 138.94H133.222C134.477 138.938 135.68 138.435 136.567 137.541C137.455 136.646 137.954 135.433 137.956 134.168V125.418C137.952 121.612 136.45 117.962 133.781 115.27C131.111 112.579 127.491 111.065 123.716 111.06H118.121C114.665 113.75 110.396 115.158 106.032 115.048C101.648 115.167 97.3573 113.759 93.8834 111.06H88.283Z" fill="#E23A5E"/>
<path d="M106 112C94.2243 112 85 98.6134 85 81.5224C85 71.3628 93.9808 60 106 60C118.019 60 127 71.3628 127 81.5224C127 98.6134 117.776 112 106 112ZM106 62.1259C95.1464 62.1259 87.0378 72.3662 87.0378 81.5224C87.0378 97.4207 95.3665 109.874 106 109.874C116.633 109.874 124.962 97.4207 124.962 81.5224C124.962 72.3662 116.853 62.1259 106 62.1259Z" fill="#E4CEC2"/>
<path d="M106 62.1259C95.1464 62.1259 87.0378 72.3662 87.0378 81.5224C87.0378 97.4207 95.3665 109.874 106 109.874C116.633 109.874 124.962 97.4207 124.962 81.5224C124.962 72.3662 116.853 62.1259 106 62.1259Z" fill="#E4CEC2"/>
<path d="M104.5 112C94.1262 112 85 98.6133 85 81.5224C85 71.3628 93.9116 60 104.5 60C115.088 60 123 71.3628 123 81.5224C123 98.6133 114.874 112 104.5 112ZM104.5 62.1259C94.9385 62.1259 87 72.3662 87 81.5224C87 97.4207 95.1324 109.874 104.5 109.874C113.868 109.874 121.205 97.4207 121.205 81.5224C121.205 72.3662 114.061 62.1259 104.5 62.1259Z" fill="#F3DED2"/>
<path d="M104.5 62.1259C94.9385 62.1259 87 72.3662 87 81.5224C87 97.4207 95.1324 109.874 104.5 109.874C113.868 109.874 121.205 97.4207 121.205 81.5224C121.205 72.3662 114.061 62.1259 104.5 62.1259Z" fill="#F3DED2"/>
<path d="M85 80.2097C85.5833 74.073 90.5479 60.623 106 60.018C121.167 59.4241 126.417 73.6771 127 81.3975C122.917 82.5852 112.533 82.8227 103.667 74.2709C101.528 76.6465 94.8 81.16 85 80.2097Z" fill="#756353"/>
<path d="M87 141V127L83 141H87Z" fill="#D62B58"/>
</svg>
