<svg width="172" height="172" viewBox="0 0 172 172" fill="none" xmlns="http://www.w3.org/2000/svg">
<circle cx="86" cy="86" r="86" fill="#DADBE2"/>
<rect x="40" y="31" width="94" height="110" rx="1" fill="#9E9A91"/>
<rect x="46" y="36" width="82" height="100" rx="1" fill="#F1EDE5"/>
<rect x="52" y="48" width="17" height="17" fill="white"/>
<rect x="52" y="77" width="17" height="17" fill="white"/>
<rect x="52" y="107" width="17" height="17" fill="white"/>
<path d="M57.8395 60.6461C57.592 60.6461 57.3546 60.5477 57.1796 60.3726L55.2849 58.478C55.1149 58.3019 55.0209 58.0662 55.023 57.8215C55.0251 57.5768 55.1233 57.3427 55.2963 57.1696C55.4694 56.9966 55.7035 56.8984 55.9482 56.8963C56.1929 56.8941 56.4286 56.9882 56.6047 57.1582L57.8395 58.393L63.1725 53.06C63.3486 52.89 63.5843 52.7959 63.8291 52.798C64.0738 52.8001 64.3079 52.8983 64.4809 53.0713C64.654 53.2444 64.7521 53.4785 64.7542 53.7232C64.7564 53.9679 64.6623 54.2037 64.4923 54.3797L58.4993 60.3661C58.4132 60.454 58.3106 60.5239 58.1974 60.572C58.0841 60.62 57.9625 60.6452 57.8395 60.6461Z" fill="#41382E"/>
<path d="M121.478 50.8667H75.3718C75.1243 50.8667 74.8869 50.7683 74.7118 50.5933C74.5368 50.4183 74.4385 50.1809 74.4385 49.9333C74.4385 49.6858 74.5368 49.4484 74.7118 49.2734C74.8869 49.0983 75.1243 49 75.3718 49H121.478C121.726 49 121.963 49.0983 122.138 49.2734C122.313 49.4484 122.412 49.6858 122.412 49.9333C122.412 50.1809 122.313 50.4183 122.138 50.5933C121.963 50.7683 121.726 50.8667 121.478 50.8667Z" fill="#41382E"/>
<path d="M121.478 57.6464H75.3718C75.1243 57.6464 74.8869 57.5481 74.7118 57.373C74.5368 57.198 74.4385 56.9606 74.4385 56.7131C74.4385 56.4655 74.5368 56.2281 74.7118 56.0531C74.8869 55.8781 75.1243 55.7797 75.3718 55.7797H121.478C121.726 55.7797 121.963 55.8781 122.138 56.0531C122.313 56.2281 122.412 56.4655 122.412 56.7131C122.412 56.9606 122.313 57.198 122.138 57.373C121.963 57.5481 121.726 57.6464 121.478 57.6464Z" fill="#41382E"/>
<path d="M97.0251 64.4253H75.3718C75.1243 64.4253 74.8869 64.3269 74.7118 64.1519C74.5368 63.9769 74.4385 63.7395 74.4385 63.4919C74.4385 63.2444 74.5368 63.007 74.7118 62.832C74.8869 62.6569 75.1243 62.5586 75.3718 62.5586H97.0251C97.2727 62.5586 97.5101 62.6569 97.6851 62.832C97.8601 63.007 97.9585 63.2444 97.9585 63.4919C97.9585 63.7395 97.8601 63.9769 97.6851 64.1519C97.5101 64.3269 97.2727 64.4253 97.0251 64.4253Z" fill="#41382E"/>
<path d="M57.8394 90.1292C57.5919 90.1291 57.3545 90.0308 57.1796 89.8557L55.2849 87.962C55.1098 87.787 55.0113 87.5496 55.0112 87.302C55.0111 87.0544 55.1094 86.8169 55.2844 86.6418C55.4594 86.4667 55.6968 86.3682 55.9444 86.3681C56.192 86.3681 56.4295 86.4663 56.6046 86.6413L57.8394 87.8761L63.1725 82.5431C63.3485 82.3731 63.5843 82.279 63.829 82.2811C64.0737 82.2832 64.3078 82.3814 64.4808 82.5544C64.6539 82.7275 64.7521 82.9616 64.7542 83.2063C64.7563 83.451 64.6622 83.6868 64.4922 83.8628L58.4993 89.8595C58.3237 90.0331 58.0864 90.1301 57.8394 90.1292Z" fill="#41382E"/>
<path d="M121.478 80.3535H75.3718C75.1243 80.3535 74.8869 80.2551 74.7118 80.0801C74.5368 79.9051 74.4385 79.6677 74.4385 79.4201C74.4385 79.1726 74.5368 78.9352 74.7118 78.7602C74.8869 78.5851 75.1243 78.4868 75.3718 78.4868H121.478C121.726 78.4868 121.963 78.5851 122.138 78.7602C122.313 78.9352 122.412 79.1726 122.412 79.4201C122.412 79.6677 122.313 79.9051 122.138 80.0801C121.963 80.2551 121.726 80.3535 121.478 80.3535Z" fill="#41382E"/>
<path d="M121.478 87.1333H75.3718C75.1243 87.1333 74.8869 87.0349 74.7118 86.8599C74.5368 86.6849 74.4385 86.4475 74.4385 86.1999C74.4385 85.9524 74.5368 85.715 74.7118 85.54C74.8869 85.3649 75.1243 85.2666 75.3718 85.2666H121.478C121.726 85.2666 121.963 85.3649 122.138 85.54C122.313 85.715 122.412 85.9524 122.412 86.1999C122.412 86.4475 122.313 86.6849 122.138 86.8599C121.963 87.0349 121.726 87.1333 121.478 87.1333Z" fill="#41382E"/>
<path d="M97.0251 93.912H75.3718C75.1243 93.912 74.8869 93.8137 74.7118 93.6387C74.5368 93.4636 74.4385 93.2262 74.4385 92.9787C74.4385 92.7312 74.5368 92.4938 74.7118 92.3187C74.8869 92.1437 75.1243 92.0453 75.3718 92.0453H97.0251C97.2727 92.0453 97.5101 92.1437 97.6851 92.3187C97.8601 92.4938 97.9585 92.7312 97.9585 92.9787C97.9585 93.2262 97.8601 93.4636 97.6851 93.6387C97.5101 93.8137 97.2727 93.912 97.0251 93.912Z" fill="#41382E"/>
<path d="M57.8395 119.616C57.592 119.616 57.3546 119.518 57.1796 119.343L55.2849 117.449C55.1958 117.363 55.1247 117.26 55.0758 117.146C55.0269 117.032 55.0011 116.91 55 116.786C54.999 116.662 55.0226 116.539 55.0695 116.424C55.1164 116.309 55.1857 116.205 55.2734 116.118C55.361 116.03 55.4652 115.961 55.5799 115.914C55.6946 115.867 55.8175 115.843 55.9414 115.844C56.0654 115.845 56.1878 115.871 56.3017 115.92C56.4156 115.969 56.5186 116.04 56.6047 116.129L57.8395 117.363L63.1725 112.03C63.3486 111.86 63.5843 111.766 63.829 111.768C64.0738 111.77 64.3079 111.868 64.4809 112.041C64.6539 112.214 64.7521 112.448 64.7542 112.693C64.7564 112.938 64.6623 113.174 64.4923 113.35L58.4993 119.343C58.3243 119.518 58.087 119.616 57.8395 119.616Z" fill="#41382E"/>
<path d="M121.478 109.84H75.3718C75.1243 109.84 74.8869 109.742 74.7118 109.567C74.5368 109.392 74.4385 109.154 74.4385 108.907C74.4385 108.659 74.5368 108.422 74.7118 108.247C74.8869 108.072 75.1243 107.974 75.3718 107.974H121.478C121.726 107.974 121.963 108.072 122.138 108.247C122.313 108.422 122.412 108.659 122.412 108.907C122.412 109.154 122.313 109.392 122.138 109.567C121.963 109.742 121.726 109.84 121.478 109.84Z" fill="#41382E"/>
<path d="M121.478 116.62H75.3718C75.1243 116.62 74.8869 116.522 74.7118 116.347C74.5368 116.172 74.4385 115.934 74.4385 115.687C74.4385 115.439 74.5368 115.202 74.7118 115.027C74.8869 114.852 75.1243 114.753 75.3718 114.753H121.478C121.726 114.753 121.963 114.852 122.138 115.027C122.313 115.202 122.412 115.439 122.412 115.687C122.412 115.934 122.313 116.172 122.138 116.347C121.963 116.522 121.726 116.62 121.478 116.62Z" fill="#41382E"/>
<path d="M97.0251 123.399H75.3718C75.1243 123.399 74.8869 123.3 74.7118 123.125C74.5368 122.95 74.4385 122.713 74.4385 122.465C74.4385 122.218 74.5368 121.981 74.7118 121.806C74.8869 121.63 75.1243 121.532 75.3718 121.532H97.0251C97.2727 121.532 97.5101 121.63 97.6851 121.806C97.8601 121.981 97.9585 122.218 97.9585 122.465C97.9585 122.713 97.8601 122.95 97.6851 123.125C97.5101 123.3 97.2727 123.399 97.0251 123.399Z" fill="#41382E"/>
</svg>
