<svg width="172" height="172" viewBox="0 0 172 172" fill="none" xmlns="http://www.w3.org/2000/svg">
<circle cx="86" cy="86" r="86" fill="#DCE2DA"/>
<path d="M77.0195 94.4706H28.9796C27.3943 94.4687 25.8745 93.8329 24.7535 92.7027C23.6325 91.5724 23.0019 90.0401 23 88.4417V80.7222C23.0043 76.8815 24.5193 73.1994 27.2128 70.4836C29.9062 67.7677 33.5581 66.2399 37.3673 66.2354H42.6236C42.8332 66.2358 43.0362 66.3094 43.1981 66.4436C45.9643 68.6808 49.4291 69.854 52.9738 69.7536C56.5367 69.8626 60.0216 68.6892 62.8046 66.4436C62.9663 66.309 63.1694 66.2353 63.3791 66.2354H68.6345C72.4433 66.2406 76.0946 67.7687 78.7876 70.4845C81.4806 73.2002 82.9955 76.8819 83 80.7222V88.4426C82.9978 90.041 82.367 91.5732 81.2459 92.7033C80.1247 93.8334 78.6048 94.469 77.0195 94.4706ZM37.3673 68.0531C34.0361 68.057 30.8425 69.3931 28.4872 71.7682C26.1318 74.1433 24.8071 77.3635 24.8038 80.7222V88.4426C24.805 89.5588 25.2453 90.629 26.0282 91.4184C26.811 92.2077 27.8725 92.6517 28.9796 92.6529H77.0195C78.1267 92.6517 79.1882 92.2077 79.9712 91.4184C80.7542 90.6291 81.1948 89.5589 81.1962 88.4426V80.7222C81.1926 77.3634 79.8677 74.1432 77.5123 71.7681C75.1568 69.393 71.9631 68.057 68.6318 68.0531H63.6948C60.6455 70.4263 56.8788 71.6687 53.028 71.5714C49.1599 71.6768 45.3741 70.4342 42.3088 68.0531H37.3673Z" fill="#DD4D4D"/>
<path d="M37.3673 68.0531C34.0361 68.057 30.8425 69.3931 28.4872 71.7682C26.1318 74.1433 24.8071 77.3635 24.8038 80.7222V88.4426C24.805 89.5588 25.2453 90.629 26.0282 91.4184C26.811 92.2077 27.8725 92.6517 28.9796 92.6529H77.0195C78.1267 92.6517 79.1882 92.2077 79.9712 91.4184C80.7542 90.6291 81.1948 89.5589 81.1962 88.4426V80.7222C81.1926 77.3634 79.8677 74.1432 77.5123 71.7681C75.1568 69.393 71.9631 68.057 68.6318 68.0531H63.6948C60.6455 70.4263 56.8788 71.6687 53.028 71.5714C49.1599 71.6768 45.3741 70.4342 42.3088 68.0531H37.3673Z" fill="#DD4D4D"/>
<path d="M53.0001 68.8824C42.6098 68.8824 34.4707 57.0706 34.4707 41.9903C34.4707 33.026 42.3949 23 53.0001 23C63.6053 23 71.5295 33.026 71.5295 41.9903C71.5295 57.0706 63.3904 68.8824 53.0001 68.8824ZM53.0001 24.8758C43.4234 24.8758 36.2688 33.9114 36.2688 41.9903C36.2688 56.0183 43.6176 67.0066 53.0001 67.0066C62.3826 67.0066 69.7314 56.0183 69.7314 41.9903C69.7314 33.9114 62.5759 24.8758 53.0001 24.8758Z" fill="#E4CEC2"/>
<path d="M53.0001 24.8758C43.4234 24.8758 36.2688 33.9114 36.2688 41.9903C36.2688 56.0183 43.6176 67.0066 53.0001 67.0066C62.3826 67.0066 69.7314 56.0183 69.7314 41.9903C69.7314 33.9114 62.5759 24.8758 53.0001 24.8758Z" fill="#E4CEC2"/>
<path d="M51.6766 68.8824C42.5232 68.8824 34.4707 57.0706 34.4707 41.9903C34.4707 33.026 42.3339 23 51.6766 23C61.0193 23 68.0001 33.026 68.0001 41.9903C68.0001 57.0706 60.83 68.8824 51.6766 68.8824ZM51.6766 24.8758C43.24 24.8758 36.2354 33.9114 36.2354 41.9903C36.2354 56.0183 43.4111 67.0066 51.6766 67.0066C59.9421 67.0066 66.4161 56.0183 66.4161 41.9903C66.4161 33.9114 60.1124 24.8758 51.6766 24.8758Z" fill="#F3DED2"/>
<path d="M51.6766 24.8758C43.24 24.8758 36.2354 33.9114 36.2354 41.9903C36.2354 56.0183 43.4111 67.0066 51.6766 67.0066C59.9421 67.0066 66.4161 56.0183 66.4161 41.9903C66.4161 33.9114 60.1124 24.8758 51.6766 24.8758Z" fill="#F3DED2"/>
<path d="M34.4707 40.8321C34.9854 35.4174 39.3659 23.5497 53.0001 23.0159C66.3825 22.4919 71.0148 35.068 71.5295 41.8801C67.9266 42.9281 58.7648 43.1377 50.9413 35.592C49.054 37.6881 43.1178 41.6706 34.4707 40.8321Z" fill="#756353"/>
<path d="M36.2355 94.4706V82.1177L32.7061 94.4706H36.2355Z" fill="#D62B2B"/>
<path d="M128.271 70.5596C128.09 70.5601 127.914 70.5077 127.762 70.4089C127.611 70.3101 127.492 70.1692 127.419 70.0036C123.81 61.6647 117.84 54.564 110.245 49.5765C102.649 44.589 93.7607 41.9327 84.6742 41.9349C84.4285 41.9349 84.1928 41.8372 84.019 41.6635C83.8452 41.4897 83.7476 41.254 83.7476 41.0082C83.7476 40.7624 83.8452 40.5267 84.019 40.353C84.1928 40.1792 84.4285 40.0815 84.6742 40.0815C94.122 40.0789 103.364 42.8405 111.262 48.0259C119.159 53.2113 125.367 60.5939 129.121 69.2641C129.182 69.4052 129.208 69.5594 129.195 69.7127C129.182 69.8661 129.131 70.0138 129.047 70.1426C128.962 70.2713 128.847 70.377 128.712 70.4501C128.577 70.5233 128.425 70.5615 128.271 70.5615V70.5596Z" fill="#41382E"/>
<path d="M84.6743 136.918C75.2266 136.921 65.9845 134.16 58.0869 128.974C50.1893 123.789 43.9812 116.407 40.2276 107.737C40.1293 107.511 40.1247 107.256 40.2147 107.026C40.3047 106.797 40.482 106.614 40.7077 106.515C40.9333 106.417 41.1887 106.412 41.4177 106.502C41.6468 106.592 41.8307 106.77 41.929 106.995C45.5381 115.334 51.5083 122.435 59.1036 127.423C66.699 132.411 75.5877 135.067 84.6743 135.065C86.2647 135.065 87.8541 134.985 89.4364 134.825C89.5581 134.81 89.6815 134.82 89.7993 134.854C89.917 134.888 90.0268 134.945 90.1219 135.022C90.2171 135.099 90.2957 135.195 90.353 135.303C90.4104 135.412 90.4453 135.53 90.4558 135.652C90.4686 135.774 90.4573 135.896 90.4227 136.013C90.388 136.13 90.3306 136.239 90.2537 136.334C90.1768 136.429 90.082 136.507 89.9746 136.565C89.8673 136.623 89.7496 136.659 89.6283 136.672C87.9821 136.837 86.3287 136.92 84.6743 136.918Z" fill="#41382E"/>
<path d="M128.259 70.5634C128.195 70.5635 128.13 70.5567 128.067 70.543L119.434 68.7036C119.313 68.6799 119.199 68.6325 119.096 68.5641C118.994 68.4956 118.907 68.4076 118.839 68.305C118.771 68.2024 118.725 68.0874 118.702 67.9666C118.679 67.8458 118.68 67.7217 118.706 67.6015C118.731 67.4812 118.781 67.3673 118.851 67.2663C118.921 67.1652 119.01 67.0792 119.114 67.013C119.217 66.9469 119.333 66.9021 119.454 66.8811C119.575 66.8602 119.7 66.8635 119.819 66.891L127.407 68.5071L127.928 60.7667C127.934 60.6446 127.965 60.525 128.018 60.415C128.071 60.3049 128.146 60.2068 128.238 60.1264C128.33 60.046 128.438 59.9849 128.554 59.9469C128.67 59.9088 128.793 59.8945 128.915 59.9049C129.036 59.913 129.155 59.945 129.264 59.999C129.373 60.053 129.47 60.1279 129.55 60.2196C129.631 60.3112 129.692 60.4178 129.731 60.5331C129.77 60.6485 129.785 60.7703 129.777 60.8918L129.184 69.6951C129.168 69.93 129.064 70.15 128.892 70.3106C128.72 70.4712 128.493 70.5602 128.258 70.5597L128.259 70.5634Z" fill="#41382E"/>
<path d="M40.4972 117.098H40.4342C40.3127 117.09 40.194 117.058 40.0849 117.004C39.9758 116.95 39.8784 116.875 39.7983 116.783C39.7182 116.691 39.6569 116.585 39.618 116.47C39.5791 116.354 39.5632 116.232 39.5714 116.111L40.1645 107.308C40.1734 107.175 40.2107 107.046 40.2739 106.929C40.337 106.812 40.4245 106.71 40.5305 106.63C40.6365 106.55 40.7585 106.494 40.8881 106.465C41.0178 106.436 41.1521 106.436 41.2821 106.463L49.9158 108.297C50.0364 108.321 50.1512 108.368 50.2533 108.437C50.3554 108.505 50.4429 108.593 50.5107 108.696C50.5784 108.798 50.6251 108.913 50.6479 109.034C50.6708 109.155 50.6694 109.279 50.6438 109.399C50.6183 109.52 50.569 109.634 50.499 109.735C50.429 109.836 50.3395 109.922 50.2359 109.988C50.1322 110.054 50.0165 110.099 49.8954 110.12C49.7742 110.141 49.6501 110.137 49.5303 110.11L41.9465 108.493L41.4257 116.233C41.4099 116.468 41.3051 116.689 41.1326 116.849C40.9601 117.01 40.7329 117.099 40.4972 117.098Z" fill="#41382E"/>
<circle cx="126" cy="112" r="27" fill="#C4A771"/>
<circle cx="126.6" cy="111.4" r="21.6" fill="#EBDB89"/>
<path d="M126 123.4C124.25 123.398 122.573 122.73 121.335 121.543C120.098 120.356 119.402 118.747 119.4 117.069C119.4 116.734 119.539 116.413 119.785 116.176C120.032 115.939 120.367 115.806 120.716 115.806C121.065 115.806 121.4 115.939 121.647 116.176C121.893 116.413 122.032 116.734 122.032 117.069C122.032 117.822 122.265 118.557 122.701 119.183C123.137 119.809 123.756 120.297 124.481 120.585C125.206 120.873 126.004 120.949 126.774 120.802C127.544 120.655 128.251 120.293 128.806 119.76C129.361 119.228 129.738 118.55 129.892 117.811C130.045 117.073 129.966 116.308 129.666 115.612C129.365 114.917 128.857 114.322 128.204 113.904C127.552 113.486 126.785 113.262 126 113.262C124.695 113.262 123.419 112.891 122.333 112.195C121.248 111.5 120.402 110.511 119.902 109.354C119.403 108.197 119.272 106.924 119.527 105.696C119.781 104.468 120.41 103.34 121.333 102.454C122.256 101.569 123.432 100.966 124.712 100.722C125.993 100.477 127.32 100.603 128.526 101.082C129.732 101.561 130.762 102.373 131.488 103.414C132.213 104.455 132.6 105.679 132.6 106.931C132.6 107.266 132.461 107.587 132.214 107.824C131.968 108.061 131.633 108.194 131.284 108.194C130.935 108.194 130.6 108.061 130.353 107.824C130.106 107.587 129.968 107.266 129.968 106.931C129.968 106.178 129.735 105.442 129.299 104.817C128.863 104.191 128.243 103.703 127.518 103.415C126.793 103.127 125.996 103.051 125.226 103.198C124.456 103.345 123.749 103.707 123.194 104.24C122.639 104.772 122.261 105.45 122.108 106.189C121.955 106.927 122.034 107.692 122.334 108.388C122.634 109.083 123.143 109.678 123.795 110.096C124.448 110.514 125.215 110.738 126 110.738C127.75 110.738 129.429 111.405 130.667 112.592C131.905 113.779 132.6 115.39 132.6 117.069C132.6 118.748 131.905 120.358 130.667 121.546C129.429 122.733 127.75 123.4 126 123.4Z" fill="#41382E"/>
<path d="M126 103C125.523 103 125.065 102.891 124.727 102.697C124.39 102.503 124.2 102.24 124.2 101.965V100.435C124.2 100.16 124.39 99.8972 124.727 99.7031C125.065 99.509 125.523 99.4 126 99.4C126.478 99.4 126.935 99.509 127.273 99.7031C127.611 99.8972 127.8 100.16 127.8 100.435V101.968C127.799 102.242 127.608 102.505 127.271 102.698C126.934 102.891 126.477 103 126 103Z" fill="#41382E"/>
<path d="M126 124.6C125.523 124.6 125.065 124.491 124.727 124.297C124.39 124.103 124.2 123.84 124.2 123.566V122.034C124.2 121.76 124.39 121.497 124.727 121.303C125.065 121.109 125.523 121 126 121C126.478 121 126.935 121.109 127.273 121.303C127.611 121.497 127.8 121.76 127.8 122.034V123.566C127.8 123.84 127.611 124.103 127.273 124.297C126.935 124.491 126.478 124.6 126 124.6Z" fill="#41382E"/>
</svg>
