<svg width="172" height="172" viewBox="0 0 172 172" fill="none" xmlns="http://www.w3.org/2000/svg">
<circle cx="86" cy="86" r="86" fill="#DCE2DA"/>
<rect x="38" y="45" width="108" height="68" rx="1" fill="#517D46"/>
<rect x="32" y="51" width="108" height="68" rx="1" fill="#629655"/>
<rect x="26" y="58" width="108" height="68" rx="1" fill="#75AF66"/>
<rect x="33" y="65" width="94" height="55" rx="1" fill="#B8E6AD"/>
<path d="M51.5486 88.7921H42.9107C42.6667 88.7921 42.4327 88.6952 42.2602 88.5227C42.0877 88.3501 41.9907 88.1161 41.9907 87.8721C41.9907 87.6281 42.0877 87.3941 42.2602 87.2216C42.4327 87.0491 42.6667 86.9521 42.9107 86.9521H51.5486C51.7926 86.9521 52.0266 87.0491 52.1991 87.2216C52.3717 87.3941 52.4686 87.6281 52.4686 87.8721C52.4686 88.1161 52.3717 88.3501 52.1991 88.5227C52.0266 88.6952 51.7926 88.7921 51.5486 88.7921Z" fill="#41382E"/>
<path d="M53.2479 93.4318H41.2115C40.9675 93.4318 40.7335 93.3349 40.561 93.1623C40.3884 92.9898 40.2915 92.7558 40.2915 92.5118C40.2915 92.2678 40.3884 92.0338 40.561 91.8613C40.7335 91.6887 40.9675 91.5918 41.2115 91.5918H53.2479C53.4919 91.5918 53.7259 91.6887 53.8984 91.8613C54.0709 92.0338 54.1679 92.2678 54.1679 92.5118C54.1679 92.7558 54.0709 92.9898 53.8984 93.1623C53.7259 93.3349 53.4919 93.4318 53.2479 93.4318Z" fill="#41382E"/>
<path d="M51.5486 98.0722H42.9107C42.6667 98.0722 42.4327 97.9752 42.2602 97.8027C42.0877 97.6302 41.9907 97.3962 41.9907 97.1522C41.9907 96.9082 42.0877 96.6742 42.2602 96.5016C42.4327 96.3291 42.6667 96.2322 42.9107 96.2322H51.5486C51.7926 96.2322 52.0266 96.3291 52.1991 96.5016C52.3717 96.6742 52.4686 96.9082 52.4686 97.1522C52.4686 97.3962 52.3717 97.6302 52.1991 97.8027C52.0266 97.9752 51.7926 98.0722 51.5486 98.0722Z" fill="#41382E"/>
<path d="M117.255 88.7921H108.616C108.372 88.7921 108.138 88.6952 107.966 88.5227C107.793 88.3501 107.696 88.1161 107.696 87.8721C107.696 87.6281 107.793 87.3941 107.966 87.2216C108.138 87.0491 108.372 86.9521 108.616 86.9521H117.255C117.499 86.9521 117.733 87.0491 117.906 87.2216C118.078 87.3941 118.175 87.6281 118.175 87.8721C118.175 88.1161 118.078 88.3501 117.906 88.5227C117.733 88.6952 117.499 88.7921 117.255 88.7921Z" fill="#41382E"/>
<path d="M118.953 93.4318H106.918C106.674 93.4318 106.44 93.3349 106.268 93.1623C106.095 92.9898 105.998 92.7558 105.998 92.5118C105.998 92.2678 106.095 92.0338 106.268 91.8613C106.44 91.6887 106.674 91.5918 106.918 91.5918H118.953C119.197 91.5918 119.431 91.6887 119.603 91.8613C119.776 92.0338 119.873 92.2678 119.873 92.5118C119.873 92.7558 119.776 92.9898 119.603 93.1623C119.431 93.3349 119.197 93.4318 118.953 93.4318Z" fill="#41382E"/>
<path d="M117.255 98.0722H108.616C108.372 98.0722 108.138 97.9752 107.966 97.8027C107.793 97.6302 107.696 97.3962 107.696 97.1522C107.696 96.9082 107.793 96.6742 107.966 96.5016C108.138 96.3291 108.372 96.2322 108.616 96.2322H117.255C117.499 96.2322 117.733 96.3291 117.906 96.5016C118.078 96.6742 118.175 96.9082 118.175 97.1522C118.175 97.3962 118.078 97.6302 117.906 97.8027C117.733 97.9752 117.499 98.0722 117.255 98.0722Z" fill="#41382E"/>
<circle cx="80.5" cy="92.5" r="20.5" fill="#75AF66"/>
<path d="M80.0827 105.262C78.2707 105.26 76.5334 104.539 75.252 103.258C73.9707 101.977 73.25 100.239 73.248 98.4273C73.248 98.1833 73.345 97.9493 73.5175 97.7768C73.69 97.6042 73.924 97.5073 74.168 97.5073C74.412 97.5073 74.6461 97.6042 74.8186 97.7768C74.9911 97.9493 75.088 98.1833 75.088 98.4273C75.0882 99.4151 75.3813 100.381 75.9302 101.202C76.4792 102.023 77.2593 102.663 78.172 103.041C79.0847 103.419 80.0889 103.518 81.0577 103.325C82.0265 103.132 82.9164 102.656 83.6148 101.958C84.3132 101.259 84.7888 100.369 84.9815 99.4005C85.1741 98.4316 85.0752 97.4274 84.6971 96.5148C84.3191 95.6022 83.6789 94.8222 82.8575 94.2734C82.0362 93.7246 81.0705 93.4317 80.0827 93.4317C78.7308 93.4313 77.4094 93.0301 76.2855 92.2787C75.1616 91.5274 74.2857 90.4596 73.7687 89.2105C73.2516 87.9614 73.1166 86.587 73.3806 85.2611C73.6446 83.9352 74.2959 82.7174 75.252 81.7616C76.2082 80.8059 77.4263 80.1551 78.7522 79.8916C80.0782 79.6281 81.4526 79.7637 82.7015 80.2813C83.9504 80.7988 85.0178 81.6751 85.7687 82.7993C86.5196 83.9235 86.9203 85.2451 86.9202 86.597C86.9202 86.841 86.8232 87.075 86.6507 87.2476C86.4782 87.4201 86.2442 87.517 86.0002 87.517C85.7562 87.517 85.5222 87.4201 85.3496 87.2476C85.1771 87.075 85.0802 86.841 85.0802 86.597C85.0802 85.6092 84.7872 84.6435 84.2384 83.8221C83.6896 83.0008 82.9095 82.3606 81.9969 81.9825C81.0842 81.6045 80.0799 81.5056 79.1111 81.6983C78.1422 81.891 77.2522 82.3667 76.5537 83.0653C75.8552 83.7638 75.3795 84.6537 75.1868 85.6226C74.9941 86.5915 75.093 87.5957 75.471 88.5084C75.849 89.4211 76.4892 90.2011 77.3106 90.7499C78.132 91.2988 79.0976 91.5917 80.0855 91.5917C81.8845 91.6126 83.6028 92.3419 84.8676 93.6215C86.1324 94.901 86.8418 96.6277 86.8418 98.4268C86.8418 100.226 86.1324 101.953 84.8676 103.232C83.6028 104.512 81.8845 105.241 80.0855 105.262H80.0827Z" fill="#41382E"/>
<path d="M80.0826 106.729C79.8386 106.729 79.6046 106.632 79.4321 106.459C79.2595 106.287 79.1626 106.053 79.1626 105.809V79.2205C79.1626 78.9765 79.2595 78.7425 79.4321 78.57C79.6046 78.3975 79.8386 78.3005 80.0826 78.3005C80.3266 78.3005 80.5606 78.3975 80.7331 78.57C80.9057 78.7425 81.0026 78.9765 81.0026 79.2205V105.809C81.0026 106.053 80.9057 106.287 80.7331 106.459C80.5606 106.632 80.3266 106.729 80.0826 106.729Z" fill="#41382E"/>
<circle cx="35" cy="66" r="7" fill="#75AF66"/>
<circle cx="126" cy="66" r="7" fill="#75AF66"/>
<circle cx="126" cy="119" r="7" fill="#75AF66"/>
<circle cx="34" cy="119" r="7" fill="#75AF66"/>
<path d="M113.737 66.073L114.753 68.8275C114.791 68.9312 114.89 69 115 69C115.11 69 115.209 68.9312 115.247 68.8275L116.263 66.073C117.086 63.8431 118.843 62.0852 121.073 61.2631L123.828 60.2471C123.931 60.209 124 60.1102 124 59.9998C124 59.8895 123.931 59.7907 123.828 59.7525L121.073 58.7366C118.843 57.9143 117.085 56.1566 116.263 53.9268L115.247 51.1723C115.209 51.0688 115.11 51 115 51C114.89 51 114.791 51.0688 114.753 51.1723L113.737 53.9268C112.915 56.1566 111.157 57.9143 108.927 58.7366L106.172 59.7525C106.069 59.7907 106 59.8895 106 59.9998C106 60.1102 106.069 60.209 106.172 60.2471L108.927 61.2631C111.157 62.0852 112.915 63.8429 113.737 66.073Z" fill="white"/>
<path d="M130.914 66.8625L129.537 66.2982C128.422 65.8413 127.543 64.8648 127.132 63.626L126.624 62.0957C126.605 62.0382 126.555 62 126.5 62C126.445 62 126.395 62.0382 126.376 62.0957L125.868 63.6259C125.457 64.8648 124.578 65.8413 123.463 66.2982L122.086 66.8625C122.034 66.8837 122 66.9385 122 66.9999C122 67.0612 122.034 67.116 122.086 67.1373L123.463 67.7018C124.578 68.1586 125.457 69.1351 125.868 70.3739L126.376 71.9043C126.395 71.9618 126.445 72 126.5 72C126.555 72 126.605 71.9618 126.624 71.9043L127.132 70.3739C127.543 69.1351 128.422 68.1585 129.537 67.7018L130.914 67.1373C130.966 67.116 131 67.0612 131 66.9999C131 66.9385 130.966 66.8837 130.914 66.8625Z" fill="white"/>
<path d="M135.895 54.3487L134.211 53.7282C132.849 53.2257 131.774 52.1514 131.272 50.7887L130.651 49.1053C130.628 49.0422 130.567 49 130.5 49C130.432 49 130.372 49.0422 130.349 49.1053L129.728 50.7885C129.226 52.1513 128.151 53.2256 126.788 53.7282L125.105 54.3487C125.042 54.3719 125 54.4324 125 54.4998C125 54.5673 125.042 54.6278 125.105 54.651L126.789 55.2718C128.151 55.7743 129.225 56.8486 129.728 58.2113L130.349 59.8947C130.372 59.958 130.432 60 130.5 60C130.567 60 130.628 59.958 130.651 59.8947L131.272 58.2112C131.774 56.8486 132.848 55.7744 134.211 55.2718L135.895 54.651C135.958 54.6278 136 54.5673 136 54.4998C136 54.4324 135.958 54.3719 135.895 54.3487Z" fill="white"/>
</svg>
