<svg width="172" height="172" viewBox="0 0 172 172" fill="none" xmlns="http://www.w3.org/2000/svg">
<circle cx="86" cy="86" r="86" fill="#E9E9E8"/>
<path d="M107 50H46L37 133H116L107 50Z" fill="#D6D0C6"/>
<path d="M115.867 50.5925C115.64 50.5925 115.423 50.5026 115.263 50.3426C115.103 50.1826 115.013 49.9655 115.013 49.7392V42.3297C114.982 37.818 113.167 33.502 109.965 30.323C106.764 27.144 102.435 25.3599 97.9233 25.3599C93.4115 25.3599 89.0827 27.144 85.8812 30.323C82.6796 33.502 80.865 37.818 80.8331 42.3297V49.7392C80.8331 49.9655 80.7432 50.1826 80.5832 50.3426C80.4232 50.5026 80.2061 50.5925 79.9798 50.5925C79.7535 50.5925 79.5364 50.5026 79.3764 50.3426C79.2164 50.1826 79.1265 49.9655 79.1265 49.7392V42.3297C79.1599 37.3664 81.155 32.6178 84.6765 29.12C88.1979 25.6222 92.9599 23.6591 97.9233 23.6591C102.887 23.6591 107.649 25.6222 111.17 29.12C114.692 32.6178 116.687 37.3664 116.72 42.3297V49.7392C116.72 49.9655 116.63 50.1826 116.47 50.3426C116.31 50.5026 116.093 50.5925 115.867 50.5925Z" fill="#4B4033"/>
<circle cx="59" cy="64" r="4" fill="#9D9D9D"/>
<circle cx="95" cy="64" r="4" fill="#9D9D9D"/>
<path d="M95.036 61.784C94.8097 61.784 94.5927 61.6941 94.4326 61.5341C94.2726 61.374 94.1827 61.157 94.1827 60.9307V42.328C94.1827 37.7953 92.3821 33.4482 89.177 30.2431C85.9719 27.038 81.6248 25.2374 77.0921 25.2374C72.5594 25.2374 68.2124 27.038 65.0073 30.2431C61.8022 33.4482 60.0016 37.7953 60.0016 42.328V60.9307C60.0016 61.157 59.9117 61.374 59.7517 61.5341C59.5916 61.6941 59.3746 61.784 59.1483 61.784C58.9219 61.784 58.7049 61.6941 58.5449 61.5341C58.3848 61.374 58.2949 61.157 58.2949 60.9307V42.328C58.2949 37.3427 60.2753 32.5615 63.8005 29.0363C67.3257 25.5112 72.1068 23.5308 77.0921 23.5308C82.0775 23.5308 86.8586 25.5112 90.3838 29.0363C93.909 32.5615 95.8894 37.3427 95.8894 42.328V60.9307C95.8894 61.157 95.7995 61.374 95.6394 61.5341C95.4794 61.6941 95.2624 61.784 95.036 61.784Z" fill="#4B4033"/>
<path d="M78 116C77.7348 116 77.4804 115.896 77.2929 115.71C77.1054 115.524 77 115.272 77 115.009V112.991C77 112.728 77.1054 112.476 77.2929 112.29C77.4804 112.104 77.7348 112 78 112C78.2652 112 78.5196 112.104 78.7071 112.29C78.8946 112.476 79 112.728 79 112.991V115.009C79 115.272 78.8946 115.524 78.7071 115.71C78.5196 115.896 78.2652 116 78 116Z" fill="#4B4033"/>
<path d="M78 81C77.7348 81 77.4804 80.8958 77.2929 80.7104C77.1054 80.5249 77 80.2734 77 80.0111V77.9889C77 77.7266 77.1054 77.4751 77.2929 77.2896C77.4804 77.1042 77.7348 77 78 77C78.2652 77 78.5196 77.1042 78.7071 77.2896C78.8946 77.4751 79 77.7266 79 77.9889V80.0111C79 80.2734 78.8946 80.5249 78.7071 80.7104C78.5196 80.8958 78.2652 81 78 81Z" fill="#4B4033"/>
<path d="M78.0002 113.996C75.6148 113.993 73.3278 113.019 71.6406 111.287C69.9534 109.555 69.0038 107.207 69 104.757C69 104.496 69.1008 104.246 69.2803 104.062C69.4598 103.877 69.7032 103.774 69.957 103.774C70.2108 103.774 70.4542 103.877 70.6336 104.062C70.8131 104.246 70.9139 104.496 70.9139 104.757C70.9149 106.195 71.3309 107.601 72.1094 108.796C72.8879 109.991 73.9939 110.923 75.2877 111.473C76.5815 112.023 78.0049 112.166 79.3782 111.885C80.7514 111.605 82.0128 110.912 83.0029 109.895C83.9929 108.878 84.6673 107.583 84.9407 106.172C85.2141 104.762 85.0742 103.3 84.5388 101.971C84.0035 100.642 83.0965 99.5059 81.9327 98.7063C80.7689 97.9067 79.4004 97.4794 78.0002 97.4785C76.2211 97.4785 74.4819 96.9366 73.0026 95.9214C71.5233 94.9062 70.3704 93.4632 69.6895 91.7749C69.0087 90.0867 68.8305 88.229 69.1776 86.4368C69.5247 84.6445 70.3815 82.9982 71.6395 81.7061C72.8975 80.414 74.5004 79.534 76.2453 79.1775C77.9903 78.821 79.7989 79.004 81.4426 79.7033C83.0864 80.4026 84.4913 81.5868 85.4797 83.1062C86.4681 84.6256 86.9957 86.4119 86.9957 88.2392C86.9957 88.4999 86.8949 88.7499 86.7154 88.9342C86.5359 89.1186 86.2925 89.2221 86.0387 89.2221C85.7849 89.2221 85.5415 89.1186 85.3621 88.9342C85.1826 88.7499 85.0818 88.4999 85.0818 88.2392C85.0818 86.8007 84.6664 85.3944 83.8883 84.1983C83.1102 83.0022 82.0042 82.07 80.7102 81.5195C79.4162 80.9689 77.9924 80.8249 76.6187 81.1056C75.245 81.3862 73.9832 82.0789 72.9928 83.0961C72.0025 84.1133 71.328 85.4094 71.0548 86.8203C70.7815 88.2312 70.9218 89.6936 71.4578 91.0227C71.9937 92.3517 72.9014 93.4877 74.066 94.2869C75.2305 95.0861 76.5996 95.5127 78.0002 95.5127C80.3871 95.5127 82.6762 96.4866 84.364 98.2201C86.0518 99.9536 87 102.305 87 104.756C87 107.208 86.0518 109.559 84.364 111.293C82.6762 113.026 80.3871 114 78.0002 114V113.996Z" fill="#4B4033"/>
<path d="M125.5 50H106.5L115.5 133L124 126L134 133L125.5 50Z" fill="#BEB8AD"/>
<path d="M124 126L115.5 133H134L124 126Z" fill="#9E9A91"/>
</svg>
