<svg width="172" height="172" viewBox="0 0 172 172" fill="none" xmlns="http://www.w3.org/2000/svg">
<circle cx="86" cy="86" r="86" fill="#DCE2DA"/>
<rect x="34" y="44" width="104" height="79" rx="5" fill="#A6A6A6"/>
<rect x="39" y="49" width="94" height="65" rx="2" fill="#E7E7E7"/>
<path d="M137.785 128.985H34.2146C30.2733 128.985 27.0664 126.115 27.0664 122.587V118.303C27.0664 118.062 27.1619 117.832 27.332 117.662C27.502 117.492 27.7326 117.396 27.9731 117.396H74.5159C74.7063 117.396 74.8918 117.456 75.0463 117.567C75.2007 117.678 75.3162 117.836 75.3763 118.016L76.4163 121.141H95.5832L96.6232 118.016C96.6833 117.836 96.7988 117.678 96.9532 117.567C97.1077 117.456 97.2932 117.396 97.4836 117.396H144.026C144.267 117.396 144.497 117.492 144.668 117.662C144.838 117.832 144.933 118.062 144.933 118.303V122.587C144.933 126.115 141.726 128.985 137.785 128.985ZM28.8797 119.209V122.587C28.8797 125.114 31.2733 127.172 34.2146 127.172H137.785C140.726 127.172 143.12 125.114 143.12 122.587V119.209H98.1382L97.0982 122.334C97.0381 122.514 96.9226 122.671 96.7682 122.783C96.6137 122.894 96.4282 122.954 96.2378 122.954H75.7617C75.5713 122.954 75.3857 122.894 75.2313 122.783C75.0769 122.671 74.9614 122.514 74.9012 122.334L73.8613 119.209H28.8797Z" fill="#8D8D8D"/>
<path d="M28.8797 119.209V122.587C28.8797 125.114 31.2733 127.172 34.2146 127.172H137.785C140.726 127.172 143.12 125.114 143.12 122.587V119.209H98.1382L97.0982 122.334C97.0381 122.514 96.9226 122.671 96.7682 122.783C96.6137 122.894 96.4282 122.954 96.2378 122.954H75.7617C75.5713 122.954 75.3857 122.894 75.2313 122.783C75.0769 122.671 74.9614 122.514 74.9012 122.334L73.8613 119.209H28.8797Z" fill="#8D8D8D"/>
<path d="M50.3332 122.813H49.6532C49.4128 122.813 49.1822 122.718 49.0121 122.548C48.8421 122.378 48.7466 122.147 48.7466 121.907C48.7466 121.666 48.8421 121.436 49.0121 121.266C49.1822 121.096 49.4128 121 49.6532 121H50.3332C50.5737 121 50.8043 121.096 50.9744 121.266C51.1444 121.436 51.2399 121.666 51.2399 121.907C51.2399 122.147 51.1444 122.378 50.9744 122.548C50.8043 122.718 50.5737 122.813 50.3332 122.813Z" fill="#41382E"/>
<path d="M45.4602 122.813H44.7802C44.5397 122.813 44.3091 122.718 44.1391 122.548C43.9691 122.378 43.8735 122.147 43.8735 121.907C43.8735 121.666 43.9691 121.436 44.1391 121.266C44.3091 121.096 44.5397 121 44.7802 121H45.4602C45.7007 121 45.9313 121.096 46.1013 121.266C46.2713 121.436 46.3669 121.666 46.3669 121.907C46.3669 122.147 46.2713 122.378 46.1013 122.548C45.9313 122.718 45.7007 122.813 45.4602 122.813Z" fill="#41382E"/>
<path d="M40.5867 122.813H39.9067C39.6662 122.813 39.4356 122.718 39.2656 122.548C39.0955 122.378 39 122.147 39 121.907C39 121.666 39.0955 121.436 39.2656 121.266C39.4356 121.096 39.6662 121 39.9067 121H40.5867C40.8271 121 41.0577 121.096 41.2278 121.266C41.3978 121.436 41.4933 121.666 41.4933 121.907C41.4933 122.147 41.3978 122.378 41.2278 122.548C41.0577 122.718 40.8271 122.813 40.5867 122.813Z" fill="#41382E"/>
<path d="M132.84 122.813H132.16C131.92 122.813 131.689 122.718 131.519 122.548C131.349 122.378 131.253 122.147 131.253 121.907C131.253 121.666 131.349 121.436 131.519 121.266C131.689 121.096 131.92 121 132.16 121H132.84C133.081 121 133.311 121.096 133.481 121.266C133.651 121.436 133.747 121.666 133.747 121.907C133.747 122.147 133.651 122.378 133.481 122.548C133.311 122.718 133.081 122.813 132.84 122.813Z" fill="#41382E"/>
<path d="M127.967 122.813H127.287C127.046 122.813 126.815 122.718 126.645 122.548C126.475 122.378 126.38 122.147 126.38 121.907C126.38 121.666 126.475 121.436 126.645 121.266C126.815 121.096 127.046 121 127.287 121H127.967C128.207 121 128.438 121.096 128.608 121.266C128.778 121.436 128.873 121.666 128.873 121.907C128.873 122.147 128.778 122.378 128.608 122.548C128.438 122.718 128.207 122.813 127.967 122.813Z" fill="#41382E"/>
<path d="M123.094 122.813H122.414C122.173 122.813 121.942 122.718 121.772 122.548C121.602 122.378 121.507 122.147 121.507 121.907C121.507 121.666 121.602 121.436 121.772 121.266C121.942 121.096 122.173 121 122.414 121H123.094C123.334 121 123.565 121.096 123.735 121.266C123.905 121.436 124 121.666 124 121.907C124 122.147 123.905 122.378 123.735 122.548C123.565 122.718 123.334 122.813 123.094 122.813Z" fill="#41382E"/>
<rect x="50" y="58" width="60" height="40" rx="7" fill="#F4F4F4"/>
<path d="M102.553 82H55.4475C55.3288 82 55.215 81.9473 55.1311 81.8536C55.0471 81.7598 55 81.6326 55 81.5C55 81.3674 55.0471 81.2402 55.1311 81.1464C55.215 81.0527 55.3288 81 55.4475 81H102.553C102.671 81 102.785 81.0527 102.869 81.1464C102.953 81.2402 103 81.3674 103 81.5C103 81.6326 102.953 81.7598 102.869 81.8536C102.785 81.9473 102.671 82 102.553 82Z" fill="#41382E"/>
<path d="M102.553 89H55.4475C55.3288 89 55.215 88.9473 55.1311 88.8536C55.0471 88.7598 55 88.6326 55 88.5C55 88.3674 55.0471 88.2402 55.1311 88.1464C55.215 88.0527 55.3288 88 55.4475 88H102.553C102.671 88 102.785 88.0527 102.869 88.1464C102.953 88.2402 103 88.3674 103 88.5C103 88.6326 102.953 88.7598 102.869 88.8536C102.785 88.9473 102.671 89 102.553 89Z" fill="#41382E"/>
<path d="M102.579 77H80.421C80.3093 77 80.2022 76.9473 80.1233 76.8536C80.0444 76.7598 80 76.6326 80 76.5C80 76.3674 80.0444 76.2402 80.1233 76.1464C80.2022 76.0527 80.3093 76 80.421 76H102.579C102.691 76 102.798 76.0527 102.877 76.1464C102.956 76.2402 103 76.3674 103 76.5C103 76.6326 102.956 76.7598 102.877 76.8536C102.798 76.9473 102.691 77 102.579 77Z" fill="#41382E"/>
<path d="M102.579 65H80.421C80.3093 65 80.2022 64.9473 80.1233 64.8536C80.0444 64.7598 80 64.6326 80 64.5C80 64.3674 80.0444 64.2402 80.1233 64.1464C80.2022 64.0527 80.3093 64 80.421 64H102.579C102.691 64 102.798 64.0527 102.877 64.1464C102.956 64.2402 103 64.3674 103 64.5C103 64.6326 102.956 64.7598 102.877 64.8536C102.798 64.9473 102.691 65 102.579 65Z" fill="#41382E"/>
<path d="M102.579 71H80.421C80.3093 71 80.2022 70.9473 80.1233 70.8536C80.0444 70.7598 80 70.6326 80 70.5C80 70.3674 80.0444 70.2402 80.1233 70.1464C80.2022 70.0527 80.3093 70 80.421 70H102.579C102.691 70 102.798 70.0527 102.877 70.1464C102.956 70.2402 103 70.3674 103 70.5C103 70.6326 102.956 70.7598 102.877 70.8536C102.798 70.9473 102.691 71 102.579 71Z" fill="#41382E"/>
<rect x="56" y="64" width="17" height="15" rx="4" fill="#D8D8D8"/>
<path d="M126.604 74C138.552 74 148.239 83.6869 148.239 95.6323C148.239 115.377 109.118 141.601 109.118 141.601C109.118 141.601 70 116.322 70 95.6321C70 80.7597 79.6869 74 91.6323 74C98.8279 74 105.184 77.5288 109.118 82.9316C113.053 77.5288 119.41 74 126.604 74Z" fill="#E63950"/>
</svg>
