<svg width="172" height="172" viewBox="0 0 172 172" fill="none" xmlns="http://www.w3.org/2000/svg">
<circle cx="86" cy="86" r="86" fill="#D7E7EB"/>
<path d="M61.5 95H54V124C61 123.833 77.2 123.6 86 124C97 124.5 105 119.5 106.5 113.5C107.7 108.7 113.333 102.167 116 99.5L129.5 86.5C131 84.5 133.1 79.7 129.5 76.5C125.9 73.3 121.333 75.8333 119.5 77.5L101 94.5L103 81.5L109.5 68L107.5 56C97.1 58.4 88.8333 66.3333 86 70L70 91L61.5 95Z" fill="#E7D1C5"/>
<path d="M109.5 68L108.5 62L96.5 83.5L95.5 99.5L101 94.5L103 81.5L109.5 68Z" fill="#DBC6BA"/>
<path d="M139.918 91C139.654 90.9998 139.394 90.9357 139.16 90.8132L123.008 82.3584L106.857 90.8132C106.587 90.9542 106.283 91.0174 105.98 90.9956C105.676 90.9738 105.385 90.8678 105.138 90.6897C104.892 90.5116 104.701 90.2685 104.586 89.9878C104.471 89.7072 104.438 89.4001 104.489 89.1015L107.565 71.1913L94.4932 58.5091C94.275 58.2976 94.1207 58.0296 94.0477 57.7353C93.9746 57.441 93.9857 57.1323 94.0798 56.844C94.1738 56.5557 94.347 56.2994 94.5798 56.104C94.8126 55.9086 95.0957 55.782 95.397 55.7384L113.461 53.1253L121.54 36.8311C121.69 36.5779 121.904 36.3681 122.161 36.2224C122.417 36.0767 122.708 36 123.003 36C123.299 36 123.589 36.0767 123.846 36.2224C124.102 36.3681 124.316 36.5779 124.467 36.8311L132.544 53.1253L150.603 55.7384C150.904 55.782 151.187 55.9086 151.42 56.104C151.653 56.2994 151.826 56.5557 151.92 56.844C152.014 57.1323 152.025 57.441 151.952 57.7353C151.879 58.0296 151.725 58.2976 151.507 58.5091L138.435 71.1913L141.522 89.1015C141.562 89.3346 141.551 89.5737 141.489 89.802C141.426 90.0303 141.314 90.2422 141.161 90.423C141.008 90.6039 140.817 90.7492 140.601 90.8488C140.386 90.9485 140.151 91.0001 139.914 91H139.918ZM123.003 78.8991C123.267 78.8993 123.528 78.9628 123.762 79.0843L137.752 86.4072L135.079 70.899C135.035 70.6395 135.054 70.373 135.136 70.1226C135.218 69.8722 135.36 69.6454 135.549 69.4617L146.867 58.4798L131.226 56.2175C130.964 56.1795 130.715 56.0786 130.501 55.9236C130.287 55.7685 130.114 55.564 129.997 55.3275L123.003 41.2193L116.016 55.3275C115.899 55.5638 115.726 55.7682 115.513 55.9232C115.299 56.0783 115.05 56.1793 114.789 56.2175L99.1462 58.4798L110.464 69.4617C110.653 69.6454 110.795 69.8722 110.877 70.1226C110.959 70.373 110.978 70.6395 110.934 70.899L108.253 86.4072L122.243 79.0843C122.478 78.9626 122.739 78.8991 123.003 78.8991Z" fill="#EDC486"/>
<path d="M123.003 78.8991C123.267 78.8993 123.528 78.9628 123.762 79.0843L137.752 86.4072L135.079 70.899C135.035 70.6395 135.054 70.373 135.136 70.1226C135.218 69.8722 135.36 69.6454 135.549 69.4617L146.867 58.4798L131.226 56.2175C130.964 56.1795 130.715 56.0786 130.501 55.9236C130.287 55.7685 130.114 55.564 129.997 55.3275L123.003 41.2193L116.016 55.3275C115.899 55.5638 115.726 55.7682 115.513 55.9232C115.299 56.0783 115.05 56.1793 114.789 56.2175L99.1462 58.4798L110.464 69.4617C110.653 69.6454 110.795 69.8722 110.877 70.1226C110.959 70.373 110.978 70.6395 110.934 70.899L108.253 86.4072L122.243 79.0843C122.478 78.9626 122.739 78.8991 123.003 78.8991Z" fill="#EDC486"/>
<path d="M118.5 78.536L100 95.536L115 100.536L128.5 87.536C130 85.536 132.1 80.736 128.5 77.536C124.9 74.336 120.333 76.8693 118.5 78.536Z" fill="#E7D1C5"/>
<rect x="33" y="90" width="21" height="41" rx="2" fill="#64989A"/>
<circle cx="46.3364" cy="123.532" r="3.5" transform="rotate(115.591 46.3364 123.532)" fill="#192F32"/>
<path d="M144.856 45.2937L142.561 44.4472C140.703 43.7619 139.238 42.2971 138.553 40.4391L137.706 38.1437C137.674 38.0575 137.592 38 137.5 38C137.408 38 137.326 38.0575 137.294 38.1437L136.447 40.4389C135.762 42.2971 134.297 43.7619 132.439 44.4472L130.144 45.2937C130.057 45.3255 130 45.4078 130 45.4997C130 45.5917 130.057 45.6741 130.144 45.7059L132.439 46.5522C134.297 47.2377 135.762 48.7025 136.447 50.5606L137.294 52.8563C137.326 52.9425 137.408 53 137.5 53C137.592 53 137.674 52.9425 137.706 52.8563L138.553 50.5606C139.238 48.7023 140.702 47.2377 142.561 46.5524L144.856 45.7059C144.943 45.6741 145 45.5917 145 45.4997C145 45.4078 144.943 45.3255 144.856 45.2937Z" fill="white"/>
<path d="M151.914 55.3761L150.536 54.868C149.421 54.4569 148.543 53.578 148.132 52.4632L147.623 51.0861C147.604 51.0344 147.555 51 147.5 51C147.445 51 147.395 51.0344 147.376 51.0861L146.868 52.4632C146.457 53.5782 145.578 54.457 144.463 54.868L143.086 55.3761C143.034 55.3951 143 55.4446 143 55.4998C143 55.5549 143.034 55.6044 143.086 55.6234L144.463 56.1315C145.578 56.5427 146.457 57.4216 146.868 58.5366L147.376 59.9139C147.395 59.9656 147.445 60 147.5 60C147.555 60 147.605 59.9656 147.624 59.9139L148.132 58.5366C148.543 57.4216 149.422 56.5427 150.537 56.1315L151.914 55.6234C151.966 55.6044 152 55.5549 152 55.4998C152 55.4446 151.966 55.3951 151.914 55.3761Z" fill="white"/>
<line x1="36.5" y1="96" x2="36.5" y2="110" stroke="#192F32"/>
<line x1="36.5" y1="112" x2="36.5" y2="116" stroke="#192F32"/>
</svg>
