<svg width="172" height="172" viewBox="0 0 172 172" fill="none" xmlns="http://www.w3.org/2000/svg">
<circle cx="86" cy="86" r="86" fill="#E7E5DB"/>
<path d="M79.0001 110.5C84.5001 122 87.5001 114.5 91.5001 120L97.0001 130.5L137 110.5L134.5 105.5L131 91L119.5 69C114.5 61.5 111 63 109 63.5C107 64 107 65.9387 106.5 67.4081C107.285 68.8962 108.114 70.7347 109 73L106.5 67.4081C103.299 61.3418 100.811 61.0985 98.0001 61.5C95.2001 61.9 94.5001 64.5 94.0001 67.4081C93.0001 65.9081 89.5001 62 85.5001 64C81.6468 65.9267 82.2361 70 83.1041 72C85.5357 77.087 87.9086 82.1094 89.5001 85.5L83.1041 72C79.679 64.8346 76.1376 57.5411 74.5001 54.5001C71.8671 49.6101 70.0001 49 65.5001 50.5C61.9001 51.7 63.3334 57.5001 64.5001 60.0001L76.0001 84.5001C66.5001 90.0001 73.5001 99.0001 79.0001 110.5Z" fill="#E7D1C5"/>
<path d="M101.517 149.312C100.733 149.311 99.9645 149.089 99.3003 148.672C98.6361 148.254 98.1025 147.659 97.7603 146.953L91.331 133.627C90.8536 132.632 90.7898 131.488 91.1538 130.446C91.5178 129.404 92.2798 128.548 93.2731 128.067L136.386 107.266C137.382 106.786 138.527 106.721 139.57 107.085C140.613 107.449 141.469 108.213 141.95 109.208L148.379 122.535C148.859 123.531 148.924 124.676 148.56 125.719C148.196 126.762 147.432 127.618 146.437 128.099L103.324 148.9C102.76 149.172 102.142 149.313 101.517 149.312ZM138.198 108.779C137.863 108.78 137.533 108.856 137.231 109.002L94.1131 129.807C93.5799 130.064 93.1707 130.523 92.9755 131.082C92.7803 131.641 92.815 132.255 93.072 132.789L99.5013 146.116C99.7592 146.649 100.218 147.058 100.777 147.254C101.336 147.449 101.95 147.414 102.483 147.157L145.597 126.356C146.13 126.098 146.54 125.64 146.735 125.08C146.931 124.521 146.896 123.907 146.639 123.374L140.209 110.047C140.025 109.669 139.739 109.349 139.383 109.126C139.027 108.902 138.616 108.783 138.195 108.782L138.198 108.779Z" fill="#64989A"/>
<path d="M138.198 108.779C137.863 108.78 137.533 108.856 137.231 109.002L94.1131 129.807C93.5799 130.064 93.1707 130.523 92.9755 131.082C92.7803 131.641 92.815 132.255 93.072 132.789L99.5013 146.116C99.7592 146.649 100.218 147.058 100.777 147.254C101.336 147.449 101.95 147.414 102.483 147.157L145.597 126.356C146.13 126.098 146.54 125.64 146.735 125.08C146.931 124.521 146.896 123.907 146.639 123.374L140.209 110.047C140.025 109.669 139.739 109.349 139.383 109.126C139.027 108.902 138.616 108.783 138.195 108.782L138.198 108.779Z" fill="#64989A"/>
<path d="M41.195 74.1932C41.0384 74.1931 40.8841 74.155 40.7455 74.082L32.3229 69.6537L23.9003 74.082C23.7407 74.166 23.5608 74.2036 23.3809 74.1906C23.201 74.1776 23.0283 74.1145 22.8824 74.0085C22.7365 73.9025 22.6231 73.7578 22.5551 73.5908C22.4871 73.4237 22.4673 73.241 22.4977 73.0632L24.1062 63.6865L17.2922 57.0445C17.163 56.9187 17.0715 56.7591 17.0282 56.584C16.9849 56.4088 16.9915 56.2251 17.0473 56.0535C17.103 55.8819 17.2056 55.7293 17.3435 55.613C17.4815 55.4967 17.6492 55.4213 17.8277 55.3954L27.244 54.0266L31.4558 45.4948C31.5448 45.3441 31.6715 45.2192 31.8235 45.1324C31.9754 45.0456 32.1474 45 32.3224 45C32.4974 45 32.6694 45.0456 32.8214 45.1324C32.9734 45.2192 33.1001 45.3441 33.189 45.4948L37.4008 54.0276L46.8181 55.3964C46.9966 55.4223 47.1643 55.4977 47.3023 55.614C47.4402 55.7303 47.5428 55.8829 47.5986 56.0545C47.6543 56.226 47.6609 56.4098 47.6176 56.585C47.5743 56.7601 47.4829 56.9196 47.3536 57.0455L40.5396 63.6846L42.1481 73.0612C42.1719 73.2 42.1651 73.3423 42.1282 73.4782C42.0912 73.6141 42.0251 73.7402 41.9343 73.8479C41.8435 73.9555 41.7303 74.042 41.6026 74.1013C41.4749 74.1606 41.3358 74.1913 41.195 74.1913V74.1932ZM32.3229 67.5947C32.4796 67.5946 32.6339 67.6328 32.7724 67.7059L39.9112 71.4595L38.5473 63.5106C38.5207 63.3559 38.5321 63.1972 38.5806 63.0479C38.6292 62.8987 38.7132 62.7636 38.8257 62.6541L44.6015 57.0252L36.6197 55.8652C36.4647 55.8424 36.3175 55.7823 36.1909 55.6901C36.0643 55.5978 35.962 55.4761 35.8928 55.3355L32.3229 48.1048L28.753 55.3355C28.6839 55.4761 28.5815 55.5978 28.4549 55.6901C28.3283 55.7823 28.1811 55.8424 28.0261 55.8652L20.0443 57.0252L25.8201 62.6541C25.9324 62.7637 26.0163 62.8989 26.0647 63.0481C26.113 63.1973 26.1243 63.356 26.0976 63.5106L24.7346 71.4595L31.8724 67.7059C32.0114 67.6328 32.166 67.5947 32.3229 67.5947Z" fill="#E29163"/>
<path d="M32.3229 67.5947C32.4796 67.5946 32.6339 67.6328 32.7724 67.7059L39.9112 71.4595L38.5473 63.5106C38.5207 63.3559 38.5321 63.1972 38.5806 63.0479C38.6292 62.8987 38.7132 62.7636 38.8257 62.6541L44.6015 57.0252L36.6197 55.8652C36.4647 55.8424 36.3175 55.7823 36.1909 55.6901C36.0643 55.5978 35.962 55.4761 35.8928 55.3355L32.3229 48.1048L28.753 55.3355C28.6839 55.4761 28.5815 55.5978 28.4549 55.6901C28.3283 55.7823 28.1811 55.8424 28.0261 55.8652L20.0443 57.0252L25.8201 62.6541C25.9324 62.7637 26.0163 62.8989 26.0647 63.0481C26.113 63.1973 26.1243 63.356 26.0976 63.5106L24.7346 71.4595L31.8724 67.7059C32.0114 67.6328 32.166 67.5947 32.3229 67.5947Z" fill="#E29163"/>
<path d="M36.1061 109.673C35.963 109.673 35.822 109.638 35.6954 109.571L28 105.525L20.3046 109.571C20.1587 109.648 19.9943 109.682 19.83 109.67C19.6656 109.659 19.5078 109.601 19.3745 109.504C19.2412 109.407 19.1376 109.275 19.0755 109.122C19.0134 108.97 18.9952 108.803 19.0231 108.64L20.4927 100.073L14.267 94.0047C14.1489 93.8897 14.0654 93.7439 14.0258 93.5839C13.9862 93.4239 13.9923 93.256 14.0432 93.0992C14.0941 92.9424 14.1879 92.803 14.3139 92.6967C14.4399 92.5905 14.5932 92.5216 14.7563 92.4979L23.3596 91.2473L27.2078 83.4521C27.289 83.3144 27.4048 83.2003 27.5437 83.121C27.6825 83.0417 27.8397 83 27.9996 83C28.1595 83 28.3166 83.0417 28.4554 83.121C28.5943 83.2003 28.7101 83.3144 28.7914 83.4521L32.6395 91.2482L41.2437 92.4988C41.4068 92.5225 41.5601 92.5914 41.6861 92.6976C41.8121 92.8039 41.9059 92.9433 41.9568 93.1001C42.0077 93.2568 42.0137 93.4247 41.9742 93.5848C41.9346 93.7448 41.8511 93.8905 41.733 94.0056L35.5073 100.071L36.9769 108.639C36.9987 108.765 36.9925 108.895 36.9587 109.02C36.925 109.144 36.8645 109.259 36.7816 109.357C36.6986 109.456 36.5952 109.535 36.4785 109.589C36.3618 109.643 36.2347 109.671 36.1061 109.671V109.673ZM28 103.644C28.1431 103.644 28.2841 103.679 28.4107 103.746L34.9332 107.175L33.687 99.9125C33.6627 99.7712 33.6732 99.6261 33.7175 99.4898C33.7618 99.3534 33.8386 99.2299 33.9413 99.1299L39.2185 93.987L31.9259 92.9272C31.7842 92.9064 31.6498 92.8514 31.5341 92.7671C31.4184 92.6828 31.3249 92.5716 31.2617 92.4432L28 85.8368L24.7383 92.4432C24.6751 92.5716 24.5816 92.6828 24.4659 92.7671C24.3502 92.8514 24.2158 92.9064 24.0741 92.9272L16.7815 93.987L22.0587 99.1299C22.1612 99.23 22.2379 99.3536 22.2821 99.4899C22.3262 99.6262 22.3365 99.7712 22.3121 99.9125L21.0668 107.175L27.5884 103.746C27.7153 103.679 27.8566 103.644 28 103.644Z" fill="#E29163"/>
<path d="M28 103.644C28.1431 103.644 28.2841 103.679 28.4107 103.746L34.9332 107.175L33.687 99.9125C33.6627 99.7712 33.6732 99.6261 33.7175 99.4898C33.7618 99.3534 33.8386 99.2299 33.9413 99.1299L39.2185 93.987L31.9259 92.9272C31.7842 92.9064 31.6498 92.8514 31.5341 92.7671C31.4184 92.6828 31.3249 92.5716 31.2617 92.4432L28 85.8368L24.7383 92.4432C24.6751 92.5716 24.5816 92.6828 24.4659 92.7671C24.3502 92.8514 24.2158 92.9064 24.0741 92.9272L16.7815 93.987L22.0587 99.1299C22.1612 99.23 22.2379 99.3536 22.2821 99.4899C22.3262 99.6262 22.3365 99.7712 22.3121 99.9125L21.0668 107.175L27.5884 103.746C27.7153 103.679 27.8566 103.644 28 103.644Z" fill="#E29163"/>
<path d="M73.6679 52.1043C73.4856 52.1042 73.306 52.0598 73.1447 51.9749L62.0056 46.1173L50.8666 51.9749C50.6808 52.0726 50.4713 52.1164 50.2619 52.1012C50.0525 52.0861 49.8515 52.0127 49.6817 51.8893C49.5118 51.766 49.3799 51.5975 49.3008 51.4031C49.2217 51.2086 49.1985 50.9959 49.234 50.789L51.3549 38.3808L42.3401 29.5944C42.1897 29.4479 42.0833 29.2622 42.0329 29.0583C41.9825 28.8545 41.9902 28.6406 42.055 28.4408C42.1199 28.2411 42.2393 28.0635 42.3999 27.9282C42.5604 27.7928 42.7556 27.7051 42.9635 27.6749L55.4212 25.8645L60.993 14.5758C61.0967 14.4004 61.2443 14.255 61.4213 14.1541C61.5982 14.0531 61.7985 14 62.0022 14C62.206 14 62.4063 14.0531 62.5832 14.1541C62.7602 14.255 62.9078 14.4004 63.0115 14.5758L68.5822 25.8645L81.0365 27.6749C81.2444 27.7051 81.4396 27.7928 81.6001 27.9282C81.7607 28.0635 81.8801 28.2411 81.945 28.4408C82.0098 28.6406 82.0175 28.8545 81.9671 29.0583C81.9167 29.2622 81.8103 29.4479 81.6599 29.5944L72.6451 38.3808L74.7739 50.789C74.8016 50.9505 74.7937 51.1162 74.7507 51.2743C74.7077 51.4325 74.6307 51.5793 74.525 51.7046C74.4193 51.8299 74.2876 51.9305 74.139 51.9996C73.9903 52.0686 73.8284 52.1044 73.6645 52.1043H73.6679ZM62.0022 43.7208C62.1844 43.7209 62.3639 43.7649 62.5254 43.849L72.1737 48.9224L70.3307 38.1782C70.2999 37.9984 70.3133 37.8138 70.3698 37.6403C70.4262 37.4669 70.524 37.3097 70.6547 37.1825L78.4599 29.5742L67.673 28.0068C67.4924 27.9805 67.3209 27.9106 67.1733 27.8032C67.0257 27.6957 66.9064 27.554 66.8258 27.3902L62.0022 17.616L57.1832 27.3902C57.1027 27.5539 56.9836 27.6955 56.8362 27.8029C56.6888 27.9103 56.5175 27.9803 56.3371 28.0068L45.5491 29.5742L53.3543 37.1825C53.485 37.3097 53.5828 37.4669 53.6392 37.6403C53.6957 37.8138 53.7091 37.9984 53.6783 38.1782L51.8297 48.9224L61.4779 43.849C61.6398 43.7647 61.8197 43.7207 62.0022 43.7208Z" fill="#E29163"/>
<path d="M62.0022 43.7208C62.1844 43.7209 62.3639 43.7649 62.5254 43.849L72.1737 48.9224L70.3307 38.1782C70.2999 37.9984 70.3133 37.8138 70.3698 37.6403C70.4262 37.4669 70.524 37.3097 70.6547 37.1825L78.4599 29.5742L67.673 28.0068C67.4924 27.9805 67.3209 27.9106 67.1733 27.8032C67.0257 27.6957 66.9064 27.554 66.8258 27.3902L62.0022 17.616L57.1832 27.3902C57.1027 27.5539 56.9836 27.6955 56.8362 27.8029C56.6888 27.9103 56.5175 27.9803 56.3371 28.0068L45.5491 29.5742L53.3543 37.1825C53.485 37.3097 53.5828 37.4669 53.6392 37.6403C53.6957 37.8138 53.7091 37.9984 53.6783 38.1782L51.8297 48.9224L61.4779 43.849C61.6398 43.7647 61.8197 43.7207 62.0022 43.7208Z" fill="#E29163"/>
<path d="M112.196 45.1942C112.039 45.1942 111.884 45.1561 111.745 45.083L103.323 40.6547L94.9003 45.083C94.7407 45.1669 94.5608 45.2045 94.3809 45.1916C94.201 45.1786 94.0283 45.1155 93.8824 45.0095C93.7365 44.9035 93.6231 44.7588 93.5551 44.5917C93.4871 44.4247 93.4673 44.2419 93.4977 44.0641L95.1063 34.6875L88.2922 28.0455C88.163 27.9196 88.0715 27.7601 88.0282 27.585C87.9849 27.4098 87.9915 27.226 88.0473 27.0545C88.103 26.8829 88.2056 26.7303 88.3436 26.614C88.4815 26.4977 88.6492 26.4223 88.8277 26.3964L98.245 25.0276L102.457 16.4948C102.546 16.3441 102.672 16.2192 102.824 16.1324C102.976 16.0456 103.148 16 103.323 16C103.498 16 103.67 16.0456 103.822 16.1324C103.974 16.2192 104.101 16.3441 104.19 16.4948L108.402 25.0276L117.818 26.3964C117.995 26.4231 118.162 26.4987 118.299 26.6146C118.436 26.7305 118.538 26.8822 118.593 27.0527C118.649 27.2233 118.656 27.4059 118.613 27.5802C118.571 27.7545 118.481 27.9136 118.354 28.0397L111.54 34.6826L113.148 44.0593C113.172 44.198 113.165 44.3402 113.128 44.476C113.091 44.6118 113.025 44.7379 112.935 44.8456C112.844 44.9532 112.731 45.0397 112.603 45.0991C112.476 45.1585 112.337 45.1893 112.196 45.1893V45.1942ZM103.325 38.5957C103.481 38.596 103.635 38.6342 103.773 38.7069L110.911 42.4604L109.548 34.5115C109.522 34.357 109.533 34.1983 109.581 34.049C109.63 33.8998 109.713 33.7646 109.826 33.6551L115.602 28.0262L107.621 26.8662C107.466 26.8436 107.318 26.7835 107.191 26.6912C107.065 26.5989 106.962 26.4772 106.893 26.3364L103.327 19.1058L99.7578 26.3364C99.6886 26.4772 99.5861 26.5989 99.4593 26.6912C99.3325 26.7835 99.1852 26.8436 99.0299 26.8662L91.0482 28.0262L96.8259 33.6551C96.9384 33.7645 97.0225 33.8997 97.071 34.0489C97.1195 34.1981 97.1309 34.3569 97.1044 34.5115L95.7385 42.4604L102.877 38.7069C103.015 38.6342 103.169 38.596 103.325 38.5957Z" fill="#E29163"/>
<path d="M103.325 38.5957C103.325 38.5957 103.323 38.5957 103.323 38.5957H103.327C103.326 38.5957 103.326 38.5957 103.325 38.5957C103.481 38.596 103.635 38.6342 103.773 38.7069L110.911 42.4604L109.548 34.5115C109.522 34.357 109.533 34.1983 109.581 34.049C109.63 33.8998 109.713 33.7646 109.826 33.6551L115.602 28.0262L107.621 26.8662C107.466 26.8436 107.318 26.7835 107.191 26.6912C107.065 26.5989 106.962 26.4772 106.893 26.3364L103.327 19.1058L99.7578 26.3364C99.6886 26.4772 99.5861 26.5989 99.4593 26.6912C99.3325 26.7835 99.1852 26.8436 99.0299 26.8662L91.0482 28.0262L96.8259 33.6551C96.9384 33.7645 97.0225 33.8997 97.071 34.0489C97.1195 34.1981 97.1309 34.3569 97.1044 34.5115L95.7385 42.4604L102.877 38.7069C103.015 38.6342 103.169 38.596 103.325 38.5957Z" fill="#E29163"/>
<path d="M146.111 64.6782C145.967 64.6782 145.826 64.6433 145.699 64.5766L138.002 60.5299L130.306 64.5766C130.16 64.6533 129.995 64.6876 129.831 64.6758C129.667 64.6639 129.509 64.6063 129.375 64.5094C129.242 64.4125 129.138 64.2803 129.076 64.1276C129.014 63.975 128.996 63.808 129.024 63.6455L130.494 55.0769L124.267 49.0074C124.149 48.8924 124.065 48.7466 124.026 48.5865C123.986 48.4265 123.992 48.2586 124.043 48.1017C124.094 47.9449 124.188 47.8055 124.314 47.6992C124.44 47.593 124.593 47.5241 124.756 47.5004L133.362 46.2496L137.211 38.4522C137.292 38.3144 137.408 38.2003 137.547 38.121C137.686 38.0417 137.843 38 138.003 38C138.163 38 138.32 38.0417 138.459 38.121C138.598 38.2003 138.713 38.3144 138.795 38.4522L142.644 46.2496L151.248 47.5004C151.41 47.5248 151.562 47.5939 151.688 47.6998C151.813 47.8057 151.906 47.9443 151.957 48.1002C152.007 48.256 152.014 48.4229 151.975 48.5822C151.936 48.7415 151.854 48.8869 151.738 49.0021L145.511 55.0725L146.981 63.6411C147.003 63.7678 146.996 63.8978 146.963 64.0219C146.929 64.146 146.869 64.2612 146.786 64.3596C146.703 64.4579 146.599 64.537 146.483 64.5912C146.366 64.6455 146.239 64.6737 146.111 64.6737V64.6782ZM138.005 58.6484C138.147 58.6487 138.288 58.6835 138.414 58.7499L144.937 62.18L143.691 54.9162C143.667 54.7749 143.677 54.6299 143.721 54.4935C143.765 54.3572 143.842 54.2336 143.945 54.1335L149.223 48.9897L141.93 47.9297C141.788 47.909 141.653 47.8542 141.537 47.7698C141.421 47.6855 141.328 47.5742 141.265 47.4456L138.006 40.8381L134.745 47.4456C134.681 47.5742 134.588 47.6855 134.472 47.7698C134.356 47.8542 134.221 47.909 134.079 47.9297L126.785 48.9897L132.065 54.1335C132.168 54.2335 132.245 54.3571 132.289 54.4934C132.334 54.6298 132.344 54.7749 132.32 54.9162L131.072 62.18L137.595 58.7499C137.721 58.6835 137.862 58.6487 138.005 58.6484Z" fill="#E29163"/>
<path d="M138.005 58.6484C138.004 58.6484 138.003 58.6484 138.002 58.6484H138.006C138.005 58.6484 138.005 58.6484 138.005 58.6484C138.147 58.6487 138.288 58.6835 138.414 58.7499L144.937 62.18L143.691 54.9162C143.667 54.7749 143.677 54.6299 143.721 54.4935C143.765 54.3572 143.842 54.2336 143.945 54.1335L149.223 48.9897L141.93 47.9297C141.788 47.909 141.653 47.8542 141.537 47.7698C141.421 47.6855 141.328 47.5742 141.265 47.4456L138.006 40.8381L134.745 47.4456C134.681 47.5742 134.588 47.6855 134.472 47.7698C134.356 47.8542 134.221 47.909 134.079 47.9297L126.785 48.9897L132.065 54.1335C132.168 54.2335 132.245 54.3571 132.289 54.4934C132.334 54.6298 132.344 54.7749 132.32 54.9162L131.072 62.18L137.595 58.7499C137.721 58.6835 137.862 58.6487 138.005 58.6484Z" fill="#E29163"/>
<circle cx="135.5" cy="118.5" r="3.5" fill="#192F32"/>
<path d="M82.5 68C82.5 66.8 83.7179 65.5 84 65L95.5 95.5C92.3974 89.75 84.4872 74.75 83.5 73C82.6538 71.5 82.5 69.5 82.5 68Z" fill="#D0BAAE"/>
<path d="M94 67.5C94 65.9 94.5 64 95.5 63L105 91L94 67.5Z" fill="#D0BAAE"/>
<path d="M106.5 67.5L116 87C114.333 81.3333 110.4 68.8 108 64C106.4 64.8 106.333 66.6667 106.5 67.5Z" fill="#D0BAAE"/>
<path d="M85 100.5L76 84.5L82.5 99L85 100.5Z" fill="#D0BAAE"/>
<line x1="103.931" y1="143.881" x2="115.633" y2="138.219" stroke="#192F32"/>
<line x1="118.828" y1="136.65" x2="122.43" y2="134.911" stroke="#192F32"/>
</svg>
