<?xml version="1.0" encoding="iso-8859-1"?>
<!-- Generator: Adobe Illustrator 19.0.0, SVG Export Plug-In . SVG Version: 6.00 Build 0)  -->
<svg xmlns="http://www.w3.org/2000/svg" xmlns:xlink="http://www.w3.org/1999/xlink" version="1.1" id="Capa_1" x="0px" y="0px" viewBox="0 0 454.999 454.999" style="enable-background:new 0 0 454.999 454.999;" xml:space="preserve" width="512" height="512">
<g>
	<path style="fill:#BD1515;" d="M247.499,27.744h-40c-4.143,0-7.5,3.358-7.5,7.5s3.357,7.5,7.5,7.5h12.5v32.5h15v-32.5h12.5   c4.143,0,7.5-3.358,7.5-7.5S251.642,27.744,247.499,27.744z"/>
	<path style="fill:#F2484B;" d="M227.499,65.249c-107.63,0-194.88,87.25-194.88,194.87c0,107.63,87.25,194.88,194.88,194.88   s194.88-87.25,194.88-194.88C422.379,152.499,335.129,65.249,227.499,65.249z"/>
	<path style="fill:#FFFFFF;" d="M227.499,95.249c-90.91,0-164.88,73.96-164.88,164.87c0,90.92,73.97,164.88,164.88,164.88   s164.88-73.96,164.88-164.88C392.379,169.209,318.409,95.249,227.499,95.249z"/>
	<path style="fill:#FFCC75;" d="M174.549,185.959c-5.85-5.85-15.35-5.85-21.21,0c-5.86,5.86-5.86,15.36,0,21.22l59.16,59.16   l25.6-16.82L174.549,185.959z"/>
	<path style="fill:#F2484B;" d="M212.499,260.119v54.88c0,8.28,6.72,15,15,15s15-6.72,15-15v-54.88H212.499z"/>
	<path style="fill:#185F8D;" d="M322.376,252.621h-94.877v15h94.877c4.143,0,7.5-3.358,7.5-7.5   C329.876,255.979,326.519,252.621,322.376,252.621z"/>
	<circle style="fill:#BD1515;" cx="227.499" cy="260.119" r="15"/>
	<path style="fill:#F2484B;" d="M389.059,13.769c32.17,23.38,39.28,68.41,15.9,100.57l-116.47-84.67   C311.869-2.501,356.899-9.611,389.059,13.769z"/>
	<path style="fill:#F2484B;" d="M166.509,29.669l-116.47,84.67c-23.38-32.16-16.27-77.19,15.9-100.57   C98.099-9.611,143.129-2.501,166.509,29.669z"/>
	<path style="fill:#274B6D;" d="M227.499,142.744c-4.143,0-7.5-3.358-7.5-7.5v-10c0-4.142,3.357-7.5,7.5-7.5s7.5,3.358,7.5,7.5v10   C234.999,139.387,231.642,142.744,227.499,142.744z"/>
	<path style="fill:#274B6D;" d="M168.812,158.47c-3.588,2.071-8.174,0.842-10.245-2.745l-5-8.66   c-2.071-3.587-0.842-8.174,2.745-10.245c3.588-2.071,8.174-0.842,10.245,2.745l5,8.66   C173.628,151.812,172.4,156.398,168.812,158.47z"/>
	<path style="fill:#274B6D;" d="M125.85,201.432c-2.071,3.588-6.658,4.816-10.245,2.745l-8.66-5   c-3.587-2.071-4.816-6.658-2.745-10.245c2.071-3.588,6.658-4.816,10.245-2.745l8.66,5   C126.692,193.258,127.922,197.844,125.85,201.432z"/>
	<path style="fill:#274B6D;" d="M110.125,260.119c0,4.143-3.358,7.5-7.5,7.5h-10c-4.142,0-7.5-3.357-7.5-7.5s3.358-7.5,7.5-7.5h10   C106.767,252.619,110.125,255.976,110.125,260.119z"/>
	<path style="fill:#274B6D;" d="M125.85,318.806c2.071,3.588,0.842,8.174-2.745,10.245l-8.66,5   c-3.587,2.071-8.174,0.842-10.245-2.745s-0.842-8.174,2.745-10.245l8.66-5C119.192,313.99,123.779,315.218,125.85,318.806z"/>
	<path style="fill:#274B6D;" d="M168.812,361.768c3.588,2.071,4.816,6.658,2.745,10.245l-5,8.66   c-2.071,3.587-6.658,4.816-10.245,2.745c-3.588-2.071-4.816-6.658-2.745-10.245l5-8.66   C160.638,360.926,165.225,359.697,168.812,361.768z"/>
	<path style="fill:#274B6D;" d="M227.499,377.493c4.143,0,7.5,3.358,7.5,7.5v10c0,4.142-3.357,7.5-7.5,7.5s-7.5-3.358-7.5-7.5v-10   C219.999,380.851,223.357,377.493,227.499,377.493z"/>
	<path style="fill:#274B6D;" d="M286.187,361.768c3.588-2.071,8.174-0.842,10.245,2.745l5,8.66   c2.071,3.587,0.842,8.174-2.745,10.245c-3.588,2.071-8.174,0.842-10.245-2.745l-5-8.66   C281.37,368.426,282.599,363.839,286.187,361.768z"/>
	<path style="fill:#274B6D;" d="M329.149,318.806c2.071-3.588,6.658-4.816,10.245-2.745l8.66,5   c3.587,2.071,4.816,6.658,2.745,10.245s-6.658,4.816-10.245,2.745l-8.66-5C328.307,326.98,327.077,322.394,329.149,318.806z"/>
	<path style="fill:#274B6D;" d="M344.874,260.119c0-4.143,3.358-7.5,7.5-7.5h10c4.142,0,7.5,3.357,7.5,7.5s-3.358,7.5-7.5,7.5h-10   C348.232,267.619,344.874,264.261,344.874,260.119z"/>
	<path style="fill:#274B6D;" d="M329.149,201.432c-2.071-3.588-0.842-8.174,2.745-10.245l8.66-5   c3.587-2.071,8.174-0.842,10.245,2.745c2.071,3.588,0.842,8.174-2.745,10.245l-8.66,5   C335.807,206.248,331.22,205.019,329.149,201.432z"/>
	<path style="fill:#274B6D;" d="M286.187,158.47c-3.588-2.071-4.816-6.658-2.745-10.245l5-8.66   c2.071-3.587,6.658-4.816,10.245-2.745c3.588,2.071,4.816,6.658,2.745,10.245l-5,8.66   C294.361,159.312,289.774,160.541,286.187,158.47z"/>
</g>















</svg>
