<?xml version="1.0" encoding="iso-8859-1"?>
<!-- Generator: Adobe Illustrator 19.0.0, SVG Export Plug-In . SVG Version: 6.00 Build 0)  -->
<svg version="1.1" id="Capa_1" xmlns="http://www.w3.org/2000/svg" xmlns:xlink="http://www.w3.org/1999/xlink" x="0px" y="0px"
	 viewBox="0 0 512 512" style="enable-background:new 0 0 512 512;" xml:space="preserve">
<g>
	<g>
		<path d="M258.916,253.799c-5.523,0-10,4.478-10,10v0.108c0,5.522,4.477,10,10,10c5.523,0,10-4.478,10-10v-0.108
			C268.916,258.277,264.439,253.799,258.916,253.799z"/>
	</g>
</g>
<g>
	<g>
		<path d="M512,179.796c0-16.583-12.765-30.233-28.983-31.659c1.496-3.684,2.328-7.706,2.328-11.921v-0.42
			c0-17.529-14.261-31.79-31.79-31.79h-59.882l13.939-29.418c10.418-21.987,6.929-48.141-8.889-66.628l-3.812-4.455
			c-1.919-2.243-4.734-3.536-7.681-3.499c-2.951,0.024-5.741,1.352-7.622,3.625L291.66,109.929c-1.834-2.127-4.542-3.478-7.57-3.478
			h-52c-5.523,0-10,4.478-10,10v176c0,5.522,4.477,10,10,10h52c5.373,0,9.743-4.24,9.978-9.555l16.37,6.42
			c1.163,0.456,2.401,0.69,3.651,0.69H428v80.271c0,30.695-24.972,55.667-55.667,55.667H145c-2.652,0-5.196,1.054-7.071,2.929
			L98.95,477.852v-31.908c0-5.522-4.477-10-10-10H75.667C44.972,435.944,20,410.972,20,380.277V207.611
			c0-30.695,24.972-55.667,55.667-55.667h56.089c5.523,0,10-4.478,10-10c0-5.522-4.477-10-10-10H75.667
			C33.944,131.944,0,165.888,0,207.611v172.666C0,422,33.944,455.944,75.667,455.944h3.283v46.051c0,4.045,2.437,7.691,6.173,9.238
			c1.237,0.513,2.536,0.762,3.825,0.762c2.602,0,5.16-1.016,7.073-2.929l53.122-53.122h223.191
			c41.723,0,75.667-33.944,75.667-75.667v-80.271h5.555c17.529,0,31.79-14.261,31.79-31.79v-0.42c0-4.215-0.832-8.237-2.328-11.921
			C499.235,254.449,512,240.799,512,224.216v-0.42c0-8.428-3.303-16.095-8.675-21.79c5.372-5.695,8.675-13.362,8.675-21.79V179.796z
			 M274.09,282.451h-32v-156h32V282.451z M492,180.216c0,6.501-5.289,11.79-11.79,11.79h-66.789c-5.523,0-10,4.478-10,10
			c0,5.522,4.477,10,10,10h66.789c6.501,0,11.79,5.289,11.79,11.79v0.42c0,6.501-5.289,11.79-11.79,11.79h-26.655h-40.133
			c-5.523,0-10,4.478-10,10c0,5.522,4.477,10,10,10h40.133c6.501,0,11.79,5.289,11.79,11.79v0.42c0,6.501-5.289,11.79-11.79,11.79
			H315.979l-21.889-8.584V138.367l93.062-112.478c7.517,11.963,8.55,27.127,2.386,40.135l-20.706,43.7
			c-1.468,3.099-1.246,6.732,0.587,9.629c1.833,2.897,5.022,4.653,8.45,4.653h75.686c6.501,0,11.79,5.289,11.79,11.79v0.42
			c0,6.501-5.289,11.79-11.79,11.79h-40.133c-5.523,0-10,4.478-10,10c0,5.522,4.477,10,10,10h40.133h26.655
			c6.501,0,11.79,5.289,11.79,11.79V180.216z"/>
	</g>
</g>
<g>
	<g>
		<path d="M186.07,134.877c-1.86-1.87-4.44-2.931-7.07-2.931s-5.21,1.061-7.07,2.931c-1.86,1.859-2.93,4.439-2.93,7.069
			s1.07,5.21,2.93,7.07s4.44,2.93,7.07,2.93s5.21-1.069,7.07-2.93c1.86-1.861,2.93-4.44,2.93-7.07S187.93,136.736,186.07,134.877z"
			/>
	</g>
</g>
<g>
	<g>
		<path d="M185.582,283.944H77.929c-5.523,0-10,4.478-10,10c0,5.522,4.477,10,10,10h107.653c5.523,0,10-4.478,10-10
			C195.582,288.422,191.105,283.944,185.582,283.944z"/>
	</g>
</g>
<g>
	<g>
		<path d="M290.576,347.944H131.755c-5.523,0-10,4.478-10,10c0,5.522,4.477,10,10,10h158.821c5.523,0,10-4.478,10-10
			C300.576,352.422,296.099,347.944,290.576,347.944z"/>
	</g>
</g>
<g>
	<g>
		<path d="M85,350.876c-1.86-1.86-4.44-2.931-7.07-2.931c-2.63,0.001-5.21,1.071-7.07,2.931c-1.86,1.859-2.93,4.439-2.93,7.069
			s1.07,5.21,2.93,7.07c1.86,1.86,4.44,2.93,7.07,2.93s5.21-1.069,7.07-2.93c1.86-1.86,2.93-4.44,2.93-7.07
			S86.86,352.735,85,350.876z"/>
	</g>
</g>
<g>
	<g>
		<path d="M185.582,219.944H77.929c-5.523,0-10,4.478-10,10c0,5.522,4.477,10,10,10h107.653c5.523,0,10-4.478,10-10
			C195.582,224.422,191.105,219.944,185.582,219.944z"/>
	</g>
</g>
<g>
</g>
<g>
</g>
<g>
</g>
<g>
</g>
<g>
</g>
<g>
</g>
<g>
</g>
<g>
</g>
<g>
</g>
<g>
</g>
<g>
</g>
<g>
</g>
<g>
</g>
<g>
</g>
<g>
</g>
</svg>
