<?xml version="1.0" encoding="iso-8859-1"?>
<!-- Generator: Adobe Illustrator 19.0.0, SVG Export Plug-In . SVG Version: 6.00 Build 0)  -->
<svg version="1.1" id="Capa_1" xmlns="http://www.w3.org/2000/svg" xmlns:xlink="http://www.w3.org/1999/xlink" x="0px" y="0px"
	 viewBox="0 0 511.999 511.999" style="enable-background:new 0 0 511.999 511.999;" xml:space="preserve">
<g>
	<g>
		<path d="M135.789,164.282H95.704c-4.152,0-7.516,3.364-7.516,7.516s3.364,7.516,7.516,7.516h40.085
			c4.152,0,7.516-3.364,7.516-7.516S139.941,164.282,135.789,164.282z"/>
	</g>
</g>
<g>
	<g>
		<path d="M240.01,164.282h-72.154c-4.152,0-7.516,3.364-7.516,7.516s3.364,7.516,7.516,7.516h72.154
			c4.152,0,7.516-3.364,7.516-7.516S244.162,164.282,240.01,164.282z"/>
	</g>
</g>
<g>
	<g>
		<path d="M167.857,228.418H95.704c-4.152,0-7.516,3.364-7.516,7.516s3.364,7.516,7.516,7.516h72.153
			c4.152,0,7.516-3.364,7.516-7.516S172.009,228.418,167.857,228.418z"/>
	</g>
</g>
<g>
	<g>
		<path d="M127.772,268.503H95.704c-4.152,0-7.516,3.364-7.516,7.516s3.364,7.516,7.516,7.516h32.068
			c4.152,0,7.516-3.364,7.516-7.516S131.924,268.503,127.772,268.503z"/>
	</g>
</g>
<g>
	<g>
		<path d="M223.976,268.503H159.84c-4.152,0-7.516,3.364-7.516,7.516s3.364,7.516,7.516,7.516h64.136
			c4.152,0,7.516-3.364,7.516-7.516C231.492,271.867,228.128,268.503,223.976,268.503z"/>
	</g>
</g>
<g>
	<g>
		<path d="M215.959,308.589H95.704c-4.152,0-7.516,3.364-7.516,7.516s3.364,7.516,7.516,7.516h120.256
			c4.152,0,7.516-3.364,7.516-7.516S220.111,308.589,215.959,308.589z"/>
	</g>
</g>
<g>
	<g>
		<path d="M231.993,228.418h-32.068c-4.152,0-7.516,3.364-7.516,7.516s3.364,7.516,7.516,7.516h32.068
			c4.152,0,7.516-3.364,7.516-7.516S236.145,228.418,231.993,228.418z"/>
	</g>
</g>
<g>
	<g>
		<path d="M505.192,73.599l-22.675-22.675c-9.079-9.077-24.227-9.077-33.306,0l-67.646,67.646
			c-5.433-15.385-20.112-26.441-37.332-26.441h-55.786c-4.152,0-7.516,3.364-7.516,7.516c0,4.152,3.364,7.516,7.516,7.516h55.786
			c13.419,0,24.353,10.823,24.543,24.197l-106.639,106.64c-0.737,0.737-1.325,1.646-1.7,2.617l-28.344,73.696
			c-2.288,5.947,3.751,12.009,9.713,9.713l73.696-28.344c0.969-0.392,1.876-0.956,2.617-1.7l50.667-50.666v104.861
			c0,13.539-11.013,24.552-24.552,24.552H183.891c-4.152,0-7.516,3.364-7.516,7.516v64.123l-83.876-69.898
			c-1.352-1.125-3.053-1.742-4.812-1.742H39.584c-13.539,0-24.552-11.013-24.552-24.552v-216.46
			c0-13.539,11.013-24.552,24.552-24.552h215.125c4.152,0,7.516-3.364,7.516-7.516c0-4.152-3.364-7.516-7.516-7.516H39.584
			C17.758,92.129,0,109.887,0,131.713v216.46C0,370,17.758,387.758,39.584,387.758h45.381l94.114,78.429
			c4.808,4.006,12.328,0.453,12.328-5.774v-72.655h152.825c21.826,0,39.584-17.758,39.584-39.584V230.924
			c0-0.798-0.126-1.565-0.357-2.287l121.732-121.732C514.269,97.825,514.269,82.678,505.192,73.599z M437.518,83.875l12.047,12.047
			L290.127,255.358l-12.047-12.047L437.518,83.875z M252.192,303.923l5.525-14.364l8.839,8.839L252.192,303.923z M281.91,292.492
			l-18.288-18.287l6.692-17.4l28.995,28.995L281.91,292.492z M312.803,278.035l-12.047-12.047l159.437-159.437l12.047,12.047
			L312.803,278.035z M494.562,96.275l-11.692,11.692l-34.722-34.722l11.692-11.692c3.32-3.321,8.725-3.321,12.047,0l22.675,22.675
			C497.883,87.549,497.883,92.955,494.562,96.275z"/>
	</g>
</g>
<g>
</g>
<g>
</g>
<g>
</g>
<g>
</g>
<g>
</g>
<g>
</g>
<g>
</g>
<g>
</g>
<g>
</g>
<g>
</g>
<g>
</g>
<g>
</g>
<g>
</g>
<g>
</g>
<g>
</g>
</svg>
