<svg width="20" height="20" viewBox="0 0 20 20" fill="none" xmlns="http://www.w3.org/2000/svg">
<path d="M0.81082 8.10811C0.754322 8.10812 0.699244 8.09042 0.653326 8.0575C0.607409 8.02458 0.572962 7.9781 0.554828 7.92459C0.536694 7.87109 0.535784 7.81324 0.552226 7.75919C0.568668 7.70514 0.601636 7.65759 0.646496 7.62325L3.88974 5.1419C3.94679 5.0999 4.01805 5.08199 4.08818 5.09201C4.15831 5.10204 4.2217 5.13919 4.26471 5.19549C4.30772 5.25178 4.32691 5.32271 4.31814 5.393C4.30938 5.4633 4.27336 5.52735 4.21785 5.57136L0.974604 8.05244C0.92769 8.08864 0.870077 8.10822 0.81082 8.10811Z" fill="black"/>
<path d="M19.1892 19.4595H0.810798C0.739117 19.4595 0.670373 19.431 0.619688 19.3803C0.569002 19.3296 0.540527 19.2609 0.540527 19.1892V7.83784C0.540527 7.76616 0.569002 7.69741 0.619688 7.64673C0.670373 7.59604 0.739117 7.56757 0.810798 7.56757C0.882478 7.56757 0.951222 7.59604 1.00191 7.64673C1.05259 7.69741 1.08107 7.76616 1.08107 7.83784V18.9189H18.9189V7.83784C18.9189 7.76616 18.9474 7.69741 18.9981 7.64673C19.0488 7.59604 19.1175 7.56757 19.1892 7.56757C19.2609 7.56757 19.3296 7.59604 19.3803 7.64673C19.431 7.69741 19.4594 7.76616 19.4594 7.83784V19.1892C19.4594 19.2609 19.431 19.3296 19.3803 19.3803C19.3296 19.431 19.2609 19.4595 19.1892 19.4595Z" fill="black"/>
<path d="M10 14.5432C9.0504 14.5445 8.12997 14.2151 7.39677 13.6116L0.640009 8.04649C0.584672 8.0009 0.549711 7.9352 0.542818 7.86383C0.535925 7.79247 0.557664 7.72129 0.603252 7.66595C0.648841 7.61061 0.714545 7.57565 0.78591 7.56876C0.857275 7.56186 0.928456 7.5836 0.983793 7.62919L7.74055 13.1943C8.37738 13.7173 9.17593 14.0032 10 14.0032C10.8241 14.0032 11.6226 13.7173 12.2595 13.1943L19.0162 7.62919C19.0716 7.5836 19.1427 7.56186 19.2141 7.56876C19.2855 7.57565 19.3512 7.61061 19.3968 7.66595C19.4424 7.72129 19.4641 7.79247 19.4572 7.86383C19.4503 7.9352 19.4153 8.0009 19.36 8.04649L12.6033 13.6116C11.87 14.2151 10.9496 14.5445 10 14.5432Z" fill="black"/>
<path d="M19.1892 19.4594C19.1266 19.4594 19.0659 19.4376 19.0176 19.3978L12.1257 13.7221C12.0983 13.6996 12.0756 13.6718 12.0589 13.6405C12.0422 13.6091 12.0319 13.5748 12.0285 13.5395C12.0216 13.4681 12.0433 13.3969 12.0889 13.3416C12.1345 13.2863 12.2002 13.2513 12.2716 13.2444C12.3429 13.2375 12.4141 13.2593 12.4694 13.3049L19.3613 18.9805C19.4044 19.0159 19.4354 19.0638 19.4501 19.1175C19.4649 19.1712 19.4627 19.2282 19.4439 19.2806C19.425 19.333 19.3905 19.3784 19.3449 19.4104C19.2993 19.4424 19.2449 19.4595 19.1892 19.4594Z" fill="black"/>
<path d="M0.810804 19.4594C0.755093 19.4595 0.700719 19.4424 0.655124 19.4104C0.609529 19.3784 0.574942 19.333 0.556095 19.2806C0.537249 19.2282 0.535065 19.1712 0.549841 19.1175C0.564617 19.0638 0.595633 19.0159 0.638642 18.9805L7.53054 13.3049C7.58587 13.2593 7.65705 13.2375 7.72842 13.2444C7.79978 13.2513 7.86549 13.2863 7.91108 13.3416C7.95666 13.3969 7.9784 13.4681 7.97151 13.5395C7.96462 13.6109 7.92966 13.6766 7.87432 13.7221L0.982426 19.3978C0.934084 19.4376 0.873422 19.4594 0.810804 19.4594Z" fill="black"/>
<path d="M13.0646 3.42437C13.0053 3.42431 12.9476 3.40475 12.9005 3.36869L10 1.15112L7.09948 3.36869C7.04253 3.41224 6.97061 3.43137 6.89955 3.4219C6.82849 3.41242 6.7641 3.3751 6.72056 3.31815C6.67701 3.2612 6.65787 3.18928 6.66735 3.11822C6.67683 3.04716 6.71415 2.98278 6.7711 2.93923L9.83596 0.596257C9.88308 0.560268 9.94072 0.540771 10 0.540771C10.0593 0.540771 10.1169 0.560268 10.1641 0.596257L13.2289 2.93923C13.2745 2.97338 13.308 3.02102 13.3249 3.07538C13.3418 3.12973 13.341 3.18803 13.3228 3.24195C13.3046 3.29586 13.2699 3.34266 13.2235 3.37566C13.1771 3.40866 13.1215 3.42617 13.0646 3.42572V3.42437Z" fill="black"/>
<path d="M19.1892 8.10811C19.1299 8.10822 19.0723 8.08864 19.0254 8.05244L15.7822 5.57136C15.7267 5.52735 15.6907 5.4633 15.6819 5.393C15.6731 5.32271 15.6923 5.25178 15.7353 5.19549C15.7783 5.13919 15.8417 5.10204 15.9118 5.09201C15.982 5.08199 16.0532 5.0999 16.1103 5.1419L19.3535 7.62325C19.3984 7.65759 19.4314 7.70514 19.4478 7.75919C19.4642 7.81324 19.4633 7.87109 19.4452 7.92459C19.4271 7.9781 19.3926 8.02458 19.3467 8.0575C19.3008 8.09042 19.2457 8.10812 19.1892 8.10811Z" fill="black"/>
<path d="M15.946 10.7784C15.8743 10.7784 15.8055 10.7499 15.7549 10.6992C15.7042 10.6485 15.6757 10.5798 15.6757 10.5081V3.42433H4.32435V10.5081C4.32435 10.5798 4.29588 10.6485 4.24519 10.6992C4.19451 10.7499 4.12576 10.7784 4.05408 10.7784C3.9824 10.7784 3.91366 10.7499 3.86297 10.6992C3.81229 10.6485 3.78381 10.5798 3.78381 10.5081V3.15406C3.78381 3.08238 3.81229 3.01364 3.86297 2.96295C3.91366 2.91226 3.9824 2.88379 4.05408 2.88379H15.946C16.0177 2.88379 16.0864 2.91226 16.1371 2.96295C16.1878 3.01364 16.2162 3.08238 16.2162 3.15406V10.5081C16.2162 10.5798 16.1878 10.6485 16.1371 10.6992C16.0864 10.7499 16.0177 10.7784 15.946 10.7784Z" fill="black"/>
<path d="M13.7162 5.94593H6.28376C6.21208 5.94593 6.14333 5.91746 6.09265 5.86677C6.04196 5.81609 6.01349 5.74734 6.01349 5.67566C6.01349 5.60398 6.04196 5.53524 6.09265 5.48455C6.14333 5.43387 6.21208 5.4054 6.28376 5.4054H13.7162C13.7879 5.4054 13.8566 5.43387 13.9073 5.48455C13.958 5.53524 13.9865 5.60398 13.9865 5.67566C13.9865 5.74734 13.958 5.81609 13.9073 5.86677C13.8566 5.91746 13.7879 5.94593 13.7162 5.94593Z" fill="black"/>
<path d="M13.7162 7.9054H6.28376C6.21208 7.9054 6.14333 7.87693 6.09265 7.82625C6.04196 7.77556 6.01349 7.70682 6.01349 7.63514C6.01349 7.56346 6.04196 7.49471 6.09265 7.44403C6.14333 7.39334 6.21208 7.36487 6.28376 7.36487H13.7162C13.7879 7.36487 13.8566 7.39334 13.9073 7.44403C13.958 7.49471 13.9865 7.56346 13.9865 7.63514C13.9865 7.70682 13.958 7.77556 13.9073 7.82625C13.8566 7.87693 13.7879 7.9054 13.7162 7.9054Z" fill="black"/>
<path d="M13.7162 9.86488H6.28376C6.21208 9.86488 6.14333 9.8364 6.09265 9.78572C6.04196 9.73503 6.01349 9.66629 6.01349 9.59461C6.01349 9.52293 6.04196 9.45419 6.09265 9.4035C6.14333 9.35282 6.21208 9.32434 6.28376 9.32434H13.7162C13.7879 9.32434 13.8566 9.35282 13.9073 9.4035C13.958 9.45419 13.9865 9.52293 13.9865 9.59461C13.9865 9.66629 13.958 9.73503 13.9073 9.78572C13.8566 9.8364 13.7879 9.86488 13.7162 9.86488Z" fill="black"/>
</svg>
