<svg width="20" height="20" viewBox="0 0 20 20" fill="none" xmlns="http://www.w3.org/2000/svg">
<g clip-path="url(#clip0)">
<path d="M2.83956 12.166C2.97493 12.1985 3.15874 12.3665 3.21181 12.5197L3.481 13.1729C3.54176 13.2983 3.53023 13.5467 3.45793 13.6659L2.38348 15.4335C2.15351 15.8127 2.2012 16.3498 2.51038 16.6981L3.42024 17.6129C3.73712 17.8961 4.29626 17.9472 4.66082 17.7251L6.41747 16.6439C6.52746 16.5758 6.76357 16.5518 6.92893 16.63L7.5773 16.8993C7.70805 16.945 7.87494 17.1292 7.90725 17.2654L8.38948 19.2807C8.49177 19.7079 8.89709 20.0592 9.33241 20.0995C9.33241 20.0995 9.59929 20.1242 9.99923 20.1242C10.3992 20.1242 10.6661 20.0995 10.6668 20.0995C10.8872 20.0733 11.0947 19.9813 11.2626 19.8354C11.4306 19.6894 11.5512 19.4962 11.609 19.2807L12.092 17.2654C12.1243 17.1299 12.2904 16.945 12.4427 16.8916L13.0918 16.6207C13.2064 16.5642 13.4718 16.5758 13.5818 16.6439L15.3384 17.7251C15.493 17.8203 15.6776 17.8706 15.8737 17.8706C16.1391 17.8706 16.3959 17.7769 16.5951 17.5982L17.5042 16.6826C17.6484 16.5114 17.7364 16.2996 17.7564 16.0762C17.7763 15.8528 17.7272 15.6286 17.6158 15.4343L16.5413 13.6666C16.469 13.5475 16.4575 13.299 16.5275 13.152L16.7951 12.4996C16.8405 12.368 17.0235 12.2001 17.1589 12.1676L19.1617 11.6823C19.3759 11.6239 19.5679 11.5024 19.7129 11.3333C19.8579 11.1642 19.9493 10.9553 19.9754 10.7335C19.9754 10.7335 20 10.4649 20 10.0625C20 9.66006 19.9754 9.39151 19.9754 9.39074C19.9492 9.16897 19.8578 8.96013 19.7128 8.79106C19.5678 8.62198 19.3759 8.50039 19.1617 8.44191L17.1597 7.95744C17.0243 7.92493 16.8405 7.75699 16.7874 7.60376L16.5182 6.95057C16.4575 6.8252 16.469 6.57677 16.5413 6.45758L17.6158 4.68995C17.8457 4.31073 17.798 3.77363 17.4888 3.42537L16.579 2.51059C16.2613 2.22657 15.7014 2.17549 15.3384 2.39838L13.5818 3.47954C13.4718 3.54687 13.2349 3.57241 13.0703 3.49347L12.4219 3.22415C12.2912 3.17849 12.1251 2.99429 12.0928 2.85808L11.6098 0.842798C11.5517 0.627215 11.4309 0.434035 11.2629 0.288113C11.0948 0.142192 10.8872 0.0502063 10.6668 0.0239916C10.6653 0.0247655 10.3984 0 9.99846 0C9.59852 0 9.33164 0.0247655 9.33087 0.0247655C9.11048 0.0510809 8.90294 0.143103 8.73492 0.289008C8.56689 0.434914 8.44606 0.628039 8.38794 0.843572L7.90648 2.85731C7.87417 2.99352 7.70728 3.17849 7.55499 3.23189L6.90586 3.50276C6.79049 3.55926 6.52592 3.54687 6.41594 3.47954L4.66005 2.39838C4.29626 2.17549 3.74865 2.21418 3.40332 2.5253L2.49423 3.44085C2.35011 3.61202 2.26205 3.8238 2.24209 4.04725C2.22212 4.27069 2.27124 4.49489 2.38271 4.68918L3.45716 6.45681C3.52946 6.57599 3.54099 6.82442 3.471 6.97147L3.20335 7.62388C3.15798 7.75545 2.97493 7.92339 2.83956 7.95589L0.836794 8.44114C0.62255 8.49953 0.43057 8.62109 0.285555 8.79018C0.14054 8.95927 0.0491252 9.16816 0.0230734 9.38996C0.0246116 9.38996 0 9.65851 0 10.061C0 10.4634 0.0246116 10.7319 0.0246116 10.7327C0.0507636 10.9545 0.142214 11.1633 0.287213 11.3324C0.432213 11.5015 0.624138 11.6231 0.838333 11.6815L2.83956 12.166ZM0.769112 10.061C0.769112 9.7065 0.789879 9.46736 0.790648 9.45962C0.802902 9.3994 0.830249 9.34333 0.870093 9.29673C0.909937 9.25014 0.960956 9.21456 1.0183 9.19339L3.02107 8.70814C3.40948 8.61372 3.80095 8.25617 3.92247 7.89785L4.17167 7.28877C4.34702 6.92735 4.32241 6.39644 4.11398 6.05282L3.03953 4.28597C2.988 4.20006 3.00262 4.0298 3.05338 3.97175L3.93093 3.08794C4.00092 3.02525 4.17936 3.00977 4.25934 3.05853L6.016 4.13969C6.34902 4.34478 6.91971 4.35871 7.22197 4.2078L7.82803 3.9555C8.20566 3.82471 8.56099 3.43078 8.65482 3.03918L9.13629 1.02467C9.15716 0.966779 9.19244 0.915246 9.23877 0.875002C9.28509 0.834757 9.3409 0.807148 9.40086 0.794815C9.40855 0.794815 9.64621 0.773919 9.99846 0.773919C10.3507 0.773919 10.5884 0.794815 10.5961 0.795589C10.6559 0.80792 10.7116 0.835438 10.7579 0.875531C10.8042 0.915625 10.8396 0.966962 10.8606 1.02467L11.3429 3.03918C11.4367 3.43001 11.7913 3.82471 12.1481 3.94699L12.7534 4.19774C13.1049 4.3711 13.6494 4.34401 13.9817 4.13969L15.7376 3.05853C15.8176 3.00977 16.0068 3.03531 16.0498 3.07246L16.9282 3.9555C16.9943 4.03057 17.0089 4.20006 16.9574 4.28597L15.8829 6.0536C15.6745 6.39644 15.6499 6.92813 15.8153 7.2671L16.066 7.87695C16.196 8.25695 16.5874 8.6145 16.9766 8.70892L18.9786 9.19339C19.0362 9.21439 19.0874 9.2499 19.1274 9.29651C19.1674 9.34312 19.1948 9.39928 19.207 9.45962C19.207 9.46736 19.2278 9.7065 19.2278 10.061C19.2278 10.4154 19.207 10.6545 19.2063 10.6623C19.194 10.7225 19.1667 10.7786 19.1268 10.8252C19.087 10.8718 19.036 10.9073 18.9786 10.9285L16.9759 11.4138C16.5874 11.5082 16.196 11.8657 16.0745 12.2241L15.8253 12.8331C15.6499 13.1946 15.6745 13.7255 15.8829 14.0691L16.9574 15.8359C17.0089 15.9218 16.9943 16.0921 16.9435 16.1502L16.066 17.034C16.0104 17.0758 15.9423 17.0973 15.8729 17.0951C15.8261 17.0966 15.7797 17.0857 15.7383 17.0634L13.9817 15.9822C13.6494 15.7779 13.0788 15.7632 12.7757 15.9141L12.1697 16.1664C11.792 16.2972 11.4367 16.6919 11.3436 17.0827L10.8614 19.0972C10.8405 19.1551 10.8053 19.2067 10.7589 19.2469C10.7126 19.2871 10.6568 19.3148 10.5968 19.3271C10.5884 19.3271 10.3507 19.348 9.99846 19.348C9.64621 19.348 9.40855 19.3271 9.40086 19.3263C9.34102 19.314 9.28529 19.2865 9.23899 19.2464C9.19268 19.2063 9.15733 19.1549 9.13629 19.0972L8.65405 17.0819C8.56022 16.6911 8.20489 16.2972 7.84879 16.1749L7.2435 15.9242C7.07138 15.8436 6.88337 15.8034 6.69359 15.8065C6.44055 15.8065 6.19982 15.8692 6.01523 15.983L4.25934 17.0641C4.17936 17.1129 3.98939 17.0866 3.94709 17.0502L3.06876 16.1664C3.00262 16.0913 2.988 15.9218 3.03953 15.8359L4.11398 14.0683C4.32241 13.7255 4.34702 13.1938 4.18166 12.8548L3.93093 12.245C3.80095 11.865 3.40948 11.5074 3.0203 11.413L1.0183 10.9285C0.960774 10.9075 0.909561 10.872 0.869567 10.8254C0.829573 10.7788 0.802135 10.7226 0.789878 10.6623C0.789878 10.6545 0.769112 10.4154 0.769112 10.061V10.061Z" fill="black"/>
<path d="M9.99843 14.3175C12.3311 14.3175 14.2285 12.4082 14.2285 10.0609C14.2285 7.71364 12.3311 5.80438 9.99843 5.80438C7.66571 5.80438 5.76831 7.71364 5.76831 10.0609C5.76831 12.4082 7.66571 14.3175 9.99843 14.3175ZM9.99843 6.5783C11.9066 6.5783 13.4594 8.14084 13.4594 10.0609C13.4594 11.981 11.9066 13.5436 9.99843 13.5436C8.09026 13.5436 6.53742 11.981 6.53742 10.0609C6.53742 8.14084 8.09026 6.5783 9.99843 6.5783Z" fill="black"/>
</g>
<defs>
<clipPath id="clip0">
<rect width="20" height="20" fill="white"/>
</clipPath>
</defs>
</svg>
