<svg width="82" height="45" xmlns="http://www.w3.org/2000/svg">

 <g>
  <title>background</title>
  <rect fill="none" id="canvas_background" height="47" width="84" y="-1" x="-1"/>
 </g>
 <g>
  <title>Layer 1</title>
  <path id="svg_2" fill="black" d="m4.09375,33l0,-27.31641l2.74219,0l0,17.89451l8.22656,-9.4922l3.585899,0l-6.749999,7.5586l7.523499,11.355499l-3.304699,0l-5.976601,-9.457001l-3.30466,3.691401l0,5.7656l-2.74219,0zm19.054649,-9.457001c0,2.3906 0.5508,4.289001 1.652401,5.695301c1.1015,1.4062 2.472599,2.1094 4.1133,2.1094c1.6171,0 2.9765,-0.703199 4.078098,-2.1094c1.125,-1.4063 1.6875,-3.304701 1.6875,-5.695301c0,-2.4375 -0.5625,-4.3477 -1.6875,-5.730499c-1.124998,-1.382799 -2.4844,-2.0742 -4.078098,-2.0742c-1.617201,0 -2.9883,0.691401 -4.1133,2.0742c-1.101601,1.382799 -1.652401,3.292999 -1.652401,5.730499zm-2.742199,0c0,-2.882799 0.7383,-5.2852 2.214899,-7.2071c1.5,-1.9218 3.5977,-2.882799 6.293001,-2.882799c2.671799,0 4.757801,0.960999 6.257801,2.882799c1.5,1.9219 2.25,4.324301 2.25,7.2071c0,1.2187 -0.164101,2.4023 -0.492203,3.5508c-0.304699,1.148401 -0.785198,2.2265 -1.441399,3.234301c-0.632801,0.9844 -1.523499,1.781301 -2.671902,2.390699c-1.124998,0.609299 -2.425798,0.914001 -3.902298,0.914001c-1.453201,0 -2.753901,-0.292999 -3.902401,-0.878902c-1.125,-0.609398 -2.0156,-1.406199 -2.6719,-2.390598c-0.632799,-1.007801 -1.113199,-2.086 -1.441401,-3.2344c-0.3281,-1.148401 -0.492199,-2.3437 -0.492199,-3.585901zm18.8438,-9.457099l3.164101,0l3.902298,11.0743c0.585903,1.6406 1.1133,3.234301 1.582001,4.7812l0.140701,0c0.351498,-1.148401 0.8671,-2.742201 1.546799,-4.7812l3.726601,-11.0743l3.0937,0l-8.1562,22.0782c-0.703098,1.875 -1.523399,3.1875 -2.460899,3.9375c-0.914101,0.773399 -2.039101,1.160099 -3.375,1.160099l-1.054699,0l0,-2.25l0.632797,0c0.890602,0 1.640602,-0.257801 2.25,-0.773399c0.632801,-0.515602 1.195301,-1.441399 1.6875,-2.777401l0.703102,-2.214798l-7.382801,-19.160201zm21.058601,14.062499c0,0.890701 0.375,1.652401 1.125,2.2852c0.75,0.6094 1.7812,0.914101 3.093697,0.914101c1.664101,0 3.0821,-0.539101 4.253899,-1.617201c1.195404,-1.078199 1.793007,-2.449299 1.793007,-4.113298l0,-2.636702c-1.031204,0.257801 -2.671906,0.5625 -4.921906,0.914001c-1.828098,0.328199 -3.175697,0.8321 -4.042896,1.5117c-0.867203,0.679699 -1.3008,1.5938 -1.3008,2.742199zm-2.742203,0.211c0,-3.5156 2.7188,-5.695299 8.156303,-6.539101c2.4375,-0.398399 4.054596,-0.7265 4.851501,-0.9844l0,-1.0898c0,-1.1719 -0.421906,-2.144499 -1.265602,-2.917999c-0.843803,-0.773399 -2.039101,-1.1601 -3.585899,-1.1601c-1.125,0 -2.214901,0.2695 -3.269604,0.8086c-1.031197,0.5156 -1.910099,1.218699 -2.6367,2.109299l-1.757797,-1.4765c0.9375,-1.078199 2.0625,-1.9571 3.375,-2.6367c1.335899,-0.6797 2.742195,-1.0196 4.218697,-1.0196c5.0625,0 7.593803,2.4727 7.593803,7.417999l0,12.128901l-2.601601,0l0,-3.0938c-0.375,1.0079 -1.148399,1.886799 -2.320297,2.636799c-1.171906,0.726501 -2.554703,1.089802 -4.148407,1.089802c-2.085995,0 -3.714897,-0.492203 -4.886696,-1.476601c-1.148502,-0.984301 -1.722702,-2.25 -1.722702,-3.796801z" opacity="0.5"/>
 </g>
</svg>