<svg width="20" height="17" viewBox="0 0 20 17" fill="none" xmlns="http://www.w3.org/2000/svg">
<path d="M10.0285 16.9771C9.86093 16.9774 9.69492 16.9446 9.54003 16.8806C9.38514 16.8165 9.24443 16.7225 9.12598 16.604L1.54886 9.02676C1.04094 8.51887 0.641817 7.91282 0.37585 7.24559C0.109883 6.57836 -0.0173544 5.86394 0.00190031 5.14591C0.021155 4.42788 0.186498 3.7213 0.487842 3.06928C0.789186 2.41727 1.22021 1.83348 1.75462 1.35354C2.26777 0.895885 2.86801 0.546498 3.51939 0.326308C4.17076 0.106117 4.85988 0.0196526 5.54546 0.0720925C6.93086 0.163506 8.23568 0.755867 9.21642 1.73864L10.0285 2.55048L11.0303 1.54873C11.5382 1.04085 12.1442 0.641761 12.8115 0.375816C13.4787 0.109872 14.1931 -0.017354 14.9111 0.00190041C15.6291 0.0211548 16.3357 0.186485 16.9877 0.487807C17.6397 0.789128 18.2235 1.22012 18.7035 1.7545C19.1612 2.26764 19.5106 2.86787 19.7308 3.51925C19.951 4.17062 20.0375 4.85974 19.9851 5.54534C19.8937 6.93076 19.3013 8.2356 18.3186 9.21638L10.9311 16.604C10.8126 16.7225 10.6719 16.8165 10.5171 16.8805C10.3622 16.9446 10.1962 16.9774 10.0286 16.9771H10.0285ZM5.19529 1.161C4.19901 1.14894 3.23375 1.5073 2.4867 2.16658C2.06267 2.54717 1.72063 3.01018 1.48147 3.52734C1.24231 4.04451 1.11104 4.60498 1.09567 5.17456C1.08029 5.74414 1.18114 6.31088 1.39206 6.84019C1.60297 7.3695 1.91953 7.85028 2.32241 8.2532L9.89954 15.8304C9.9338 15.8645 9.98018 15.8837 10.0285 15.8837C10.0769 15.8837 10.1233 15.8645 10.1575 15.8304L17.545 8.44283C19.2014 6.78649 19.3564 4.11455 17.8906 2.48667C17.51 2.06262 17.0469 1.72057 16.5298 1.48141C16.0126 1.24224 15.4521 1.11096 14.8825 1.09558C14.3129 1.08021 13.7462 1.18106 13.2169 1.39199C12.6876 1.60291 12.2068 1.91948 11.8038 2.32238L10.4154 3.71086C10.3646 3.76167 10.3043 3.80196 10.2379 3.82946C10.1715 3.85695 10.1004 3.8711 10.0286 3.8711C9.95675 3.8711 9.88562 3.85695 9.81926 3.82946C9.75289 3.80196 9.69259 3.76167 9.64181 3.71086L8.44295 2.51201C7.58133 1.65039 6.4138 1.16467 5.19529 1.16091V1.161Z" fill="black"/>
</svg>
