<svg width="20" height="20" viewBox="0 0 20 20" fill="none" xmlns="http://www.w3.org/2000/svg">
<path d="M19.698 3.55594C19.5312 3.55594 19.3961 3.69113 19.3961 3.85789V17.8893C19.3961 18.7201 18.7202 19.3961 17.8893 19.3961H2.11066C1.27984 19.3961 0.603906 18.7202 0.603906 17.8893V2.11066C0.603906 1.27984 1.27984 0.603906 2.11066 0.603906H17.8893C18.7201 0.603906 19.3961 1.2798 19.3961 2.11066C19.3961 2.27742 19.5313 2.41262 19.698 2.41262C19.8648 2.41262 20 2.27742 20 2.11066C20 0.946836 19.0532 0 17.8893 0H2.11066C0.946836 0 0 0.946836 0 2.11066V17.8893C0 19.0532 0.946836 20 2.11066 20H17.8893C19.0532 20 20 19.0532 20 17.8893V3.85789C20 3.69113 19.8648 3.55594 19.698 3.55594Z" fill="black"/>
<path d="M4.84583 4.14026H4.17442C3.71348 4.14026 3.33844 4.51526 3.33844 4.97624V5.64768C3.33844 6.10862 3.71348 6.48362 4.17442 6.48362H4.84583C5.30676 6.48362 5.6818 6.10862 5.6818 5.64768V4.97624C5.6818 4.5153 5.30676 4.14026 4.84583 4.14026ZM5.07786 5.64768C5.07786 5.77561 4.97379 5.87968 4.84583 5.87968H4.17442C4.04649 5.87968 3.94239 5.77561 3.94239 5.64768V4.97624C3.94239 4.84831 4.04645 4.74421 4.17442 4.74421H4.84583C4.97376 4.74421 5.07786 4.84827 5.07786 4.97624V5.64768Z" fill="black"/>
<path d="M16.3596 5.00995H7.11928C6.95248 5.00995 6.81732 5.14514 6.81732 5.3119C6.81732 5.47866 6.95252 5.61385 7.11928 5.61385H16.3596C16.5264 5.61385 16.6615 5.47866 16.6615 5.3119C16.6615 5.14514 16.5264 5.00995 16.3596 5.00995Z" fill="black"/>
<path d="M4.84583 8.66534H4.17442C3.71348 8.66534 3.33844 9.04035 3.33844 9.50129V10.1727C3.33844 10.6337 3.71348 11.0087 4.17442 11.0087H4.84583C5.30676 11.0087 5.6818 10.6337 5.6818 10.1727V9.50129C5.6818 9.04035 5.30676 8.66534 4.84583 8.66534ZM5.07786 10.1727C5.07786 10.3007 4.97379 10.4048 4.84583 10.4048H4.17442C4.04649 10.4048 3.94239 10.3007 3.94239 10.1727V9.50129C3.94239 9.37336 4.04645 9.26929 4.17442 9.26929H4.84583C4.97376 9.26929 5.07786 9.37336 5.07786 9.50129V10.1727Z" fill="black"/>
<path d="M16.3596 9.53503H7.11928C6.95248 9.53503 6.81732 9.67023 6.81732 9.83698C6.81732 10.0037 6.95252 10.1389 7.11928 10.1389H16.3596C16.5264 10.1389 16.6615 10.0037 16.6615 9.83698C16.6615 9.67023 16.5264 9.53503 16.3596 9.53503Z" fill="black"/>
<path d="M4.84583 13.5164H4.17442C3.71348 13.5164 3.33844 13.8914 3.33844 14.3524V15.0238C3.33844 15.4848 3.71348 15.8598 4.17442 15.8598H4.84583C5.30676 15.8598 5.6818 15.4848 5.6818 15.0238V14.3524C5.6818 13.8914 5.30676 13.5164 4.84583 13.5164ZM5.07786 15.0238C5.07786 15.1517 4.97379 15.2558 4.84583 15.2558H4.17442C4.04649 15.2558 3.94239 15.1518 3.94239 15.0238V14.3524C3.94239 14.2244 4.04645 14.1203 4.17442 14.1203H4.84583C4.97376 14.1203 5.07786 14.2244 5.07786 14.3524V15.0238Z" fill="black"/>
<path d="M16.3596 14.3861H7.11928C6.95248 14.3861 6.81732 14.5213 6.81732 14.6881C6.81732 14.8548 6.95252 14.99 7.11928 14.99H16.3596C16.5264 14.99 16.6615 14.8548 16.6615 14.6881C16.6615 14.5213 16.5264 14.3861 16.3596 14.3861Z" fill="black"/>
</svg>
