<svg width="20" height="20" viewBox="0 0 20 20" fill="none" xmlns="http://www.w3.org/2000/svg">
<path d="M16.4298 0H3.57029C3.37395 0 3.21478 0.159166 3.21478 0.35551V19.6445C3.21478 19.8409 3.37387 20 3.57021 20H16.4297C16.6261 20 16.7852 19.8408 16.7852 19.6445V0.35551C16.7853 0.159166 16.6261 0 16.4298 0ZM3.92572 0.865393L9.64455 2.97322V17.0267L3.92572 19.1345V0.865393ZM16.0743 19.2891H5.56258L10.123 17.6082C10.2627 17.5567 10.3555 17.4235 10.3555 17.2747V2.7254C10.3555 2.57653 10.2627 2.44338 10.123 2.39182L5.56266 0.710942H16.0743V19.2891Z" fill="black"/>
<path d="M8.49036 8.76752C7.98362 8.76752 7.58661 9.30892 7.58661 10.0001C7.58661 10.6913 7.98362 11.2327 8.49036 11.2327C8.99717 11.2327 9.39411 10.6913 9.39411 10.0001C9.39411 9.30892 8.99717 8.76752 8.49036 8.76752ZM8.49028 10.5216C8.44398 10.5101 8.29755 10.3299 8.29755 10.0001C8.29755 9.67032 8.44398 9.49025 8.49028 9.47862C8.53665 9.49033 8.68317 9.67072 8.68317 10.0001C8.68317 10.3295 8.53665 10.5099 8.49028 10.5216Z" fill="black"/>
</svg>
