<svg width="50" height="50" viewBox="0 0 50 50" fill="none" xmlns="http://www.w3.org/2000/svg">
<path opacity="0.3" d="M33.3333 16.6667H30.5556C29.0278 16.6667 27.7778 15.4167 27.7778 13.8889V0H5.55556C2.5 0 0 2.5 0 5.55556V44.4444C0 47.5 2.5 50 5.55556 50H44.4444C47.5 50 50 47.5 50 44.4444V22.2222H36.1111C34.5833 22.2222 33.3333 20.9722 33.3333 19.4444V16.6667ZM38.8889 38.8889H11.1111C10.8532 38.8889 10.6003 38.8171 10.3809 38.6815C10.1615 38.5459 9.9842 38.3518 9.86885 38.1211C9.7535 37.8904 9.70467 37.6322 9.72783 37.3753C9.751 37.1184 9.84524 36.873 10 36.6667L15.5556 29.25C16.1111 28.5 17.2222 28.5 17.7778 29.25L22.9167 36.1111L30.1389 26.4722C30.6944 25.7222 31.8056 25.7222 32.3611 26.4722L40 36.6667C40.1548 36.873 40.249 37.1184 40.2722 37.3753C40.2953 37.6322 40.2465 37.8904 40.1311 38.1211C40.0158 38.3518 39.8385 38.5459 39.6191 38.6815C39.3997 38.8171 39.1468 38.8889 38.8889 38.8889Z" fill="black"/>
<path opacity="0.3" d="M44.3333 5.66667V2.83333C44.3333 1.275 43.0583 0 41.5 0C39.9417 0 38.6667 1.275 38.6667 2.83333V5.66667H35.8333C34.275 5.66667 33 6.94167 33 8.5C33 10.0583 34.275 11.3333 35.8333 11.3333H38.6667V14.1667C38.6667 15.725 39.9417 17 41.5 17C43.0583 17 44.3333 15.725 44.3333 14.1667V11.3333H47.1667C48.725 11.3333 50 10.0583 50 8.5C50 6.94167 48.725 5.66667 47.1667 5.66667H44.3333Z" fill="black"/>
</svg>
