<?xml version="1.0" standalone="no"?>
<!DOCTYPE svg PUBLIC "-//W3C//DTD SVG 20010904//EN"
 "http://www.w3.org/TR/2001/REC-SVG-20010904/DTD/svg10.dtd">
<svg version="1.0" xmlns="http://www.w3.org/2000/svg"
 width="900.000000pt" height="540.000000pt" viewBox="0 0 900.000000 540.000000"
 preserveAspectRatio="xMidYMid meet">

<g transform="translate(0.000000,540.000000) scale(0.100000,-0.100000)"
fill="#000000" stroke="none">
<path d="M730 5393 c-201 -21 -380 -109 -511 -251 -217 -235 -276 -558 -158
-862 45 -118 101 -194 258 -351 444 -444 3665 -3599 3711 -3636 222 -175 555
-207 811 -78 95 47 125 70 254 194 102 99 849 830 1500 1471 154 151 399 392
545 535 146 143 393 387 550 541 157 154 425 416 595 584 494 484 536 528 589
613 88 141 133 321 123 482 -20 306 -196 564 -470 690 -239 109 -529 86 -748
-61 -69 -47 -227 -207 -1193 -1209 -149 -154 -332 -343 -407 -420 -75 -77
-452 -468 -839 -870 -386 -401 -735 -763 -774 -803 l-71 -72 -540 560 c-297
309 -560 582 -584 608 -68 72 -768 800 -916 952 -72 74 -245 254 -385 400
-690 720 -776 805 -861 860 -42 27 -94 56 -115 64 -109 43 -272 69 -364 59z"/>
</g>
</svg>
